<svg xmlns="http://www.w3.org/2000/svg" xmlns:xlink="http://www.w3.org/1999/xlink" viewBox="0 0 183.44 163.05"><defs><style>.cls-1{fill:url(#linear-gradient);}.cls-2{fill:url(#linear-gradient-2);}.cls-3{fill:url(#linear-gradient-3);}.cls-4{fill:url(#linear-gradient-4);}.cls-5{fill:#b3b3b3;}.cls-6{fill:url(#linear-gradient-5);}.cls-7{fill:url(#linear-gradient-6);}.cls-8{fill:url(#linear-gradient-7);}.cls-28,.cls-9{fill:#fff;}.cls-9{opacity:0.67;}.cls-10{fill:url(#linear-gradient-8);}.cls-11{fill:url(#linear-gradient-9);}.cls-12{fill:url(#linear-gradient-10);}.cls-13{fill:url(#linear-gradient-11);}.cls-14{fill:url(#linear-gradient-12);}.cls-15{fill:url(#linear-gradient-13);}.cls-16{fill:url(#linear-gradient-14);}.cls-17{fill:url(#linear-gradient-15);}.cls-18{fill:url(#linear-gradient-16);}.cls-19{fill:url(#linear-gradient-17);}.cls-20{fill:url(#linear-gradient-18);}.cls-21{fill:url(#linear-gradient-19);}.cls-22{fill:url(#linear-gradient-20);}.cls-23{fill:url(#linear-gradient-21);}.cls-24{fill:url(#linear-gradient-22);}.cls-25{fill:url(#linear-gradient-23);}.cls-26{fill:url(#linear-gradient-24);}.cls-27{fill:url(#linear-gradient-25);}</style><linearGradient id="linear-gradient" x1="152.17" y1="418.78" x2="172.79" y2="418.78" gradientTransform="translate(465.77 267.74) rotate(139.88)" gradientUnits="userSpaceOnUse"><stop offset="0" stop-color="#31577c"/><stop offset="1" stop-color="#381b6b"/></linearGradient><linearGradient id="linear-gradient-2" x1="11.53" y1="834.33" x2="32.15" y2="834.33" gradientTransform="matrix(0.32, 0.95, -0.95, 0.32, 815.34, -216.79)" xlink:href="#linear-gradient"/><linearGradient id="linear-gradient-3" x1="142.6" y1="553.18" x2="171.46" y2="553.18" gradientTransform="translate(655.06 156.53) rotate(116.01)" gradientUnits="userSpaceOnUse"><stop offset="0" stop-color="#fff"/><stop offset="1" stop-color="#7ec5ff"/></linearGradient><linearGradient id="linear-gradient-4" x1="153.73" y1="428.22" x2="175.64" y2="428.22" gradientTransform="translate(465.77 267.74) rotate(139.88)" xlink:href="#linear-gradient-3"/><linearGradient id="linear-gradient-5" x1="-184.44" y1="810.1" x2="-288.3" y2="943.08" gradientTransform="translate(684.42 -597.9) rotate(25.68)" xlink:href="#linear-gradient-3"/><linearGradient id="linear-gradient-6" x1="-254.05" y1="781.61" x2="-160.93" y2="843.7" gradientTransform="translate(684.42 -597.9) rotate(25.68)" xlink:href="#linear-gradient-3"/><linearGradient id="linear-gradient-7" x1="-249.91" y1="786.56" x2="-201.96" y2="825.3" gradientTransform="translate(684.42 -597.9) rotate(25.68)" xlink:href="#linear-gradient"/><linearGradient id="linear-gradient-8" x1="-268.86" y1="859.46" x2="-248.14" y2="859.46" gradientTransform="matrix(0.97, 0.24, -0.24, 0.97, 600.06, -664.05)" xlink:href="#linear-gradient"/><linearGradient id="linear-gradient-9" x1="-204.64" y1="854.19" x2="-175.78" y2="854.19" gradientTransform="translate(684.42 -597.9) rotate(25.68)" xlink:href="#linear-gradient-3"/><linearGradient id="linear-gradient-10" x1="-254.98" y1="872.08" x2="-232.95" y2="872.08" gradientTransform="translate(617.64 -652.83) rotate(16.22)" xlink:href="#linear-gradient-3"/><linearGradient id="linear-gradient-11" x1="111.24" y1="773.86" x2="127.74" y2="771.11" gradientTransform="translate(852.15 -209.96) rotate(72.71)" xlink:href="#linear-gradient-3"/><linearGradient id="linear-gradient-12" x1="109.68" y1="770.46" x2="114.44" y2="782.14" gradientTransform="translate(852.15 -209.96) rotate(72.71)" xlink:href="#linear-gradient"/><linearGradient id="linear-gradient-13" x1="-309.21" y1="841.71" x2="-291.34" y2="857.77" gradientTransform="translate(684.42 -597.9) rotate(25.68)" xlink:href="#linear-gradient-3"/><linearGradient id="linear-gradient-14" x1="-57.2" y1="823" x2="-52.43" y2="834.68" gradientTransform="matrix(-0.89, -0.45, -0.45, 0.89, 374.54, -721.92)" xlink:href="#linear-gradient"/><linearGradient id="linear-gradient-15" x1="-285.28" y1="868.01" x2="-272.93" y2="895.86" gradientTransform="translate(684.42 -597.9) rotate(25.68)" xlink:href="#linear-gradient-3"/><linearGradient id="linear-gradient-16" x1="-359.21" y1="857.05" x2="-354.04" y2="889.62" gradientTransform="translate(637.74 -643.63) rotate(18.8)" xlink:href="#linear-gradient-3"/><linearGradient id="linear-gradient-17" x1="143.89" y1="652.83" x2="163.21" y2="652.83" gradientTransform="translate(672.36 141.5) rotate(110.69)" xlink:href="#linear-gradient-3"/><linearGradient id="linear-gradient-18" x1="153.55" y1="647.8" x2="164.07" y2="647.8" gradientTransform="translate(672.36 141.5) rotate(110.69)" xlink:href="#linear-gradient"/><linearGradient id="linear-gradient-19" x1="186.51" y1="312.66" x2="207.13" y2="312.66" gradientTransform="matrix(-0.2, 0.98, 0.98, 0.2, -216.44, -128.52)" xlink:href="#linear-gradient"/><linearGradient id="linear-gradient-20" x1="-257.45" y1="902.33" x2="-223.41" y2="924.37" gradientTransform="translate(684.42 -597.9) rotate(25.68)" xlink:href="#linear-gradient-3"/><linearGradient id="linear-gradient-21" x1="-278.02" y1="925.69" x2="-243.05" y2="952.66" gradientTransform="translate(684.42 -597.9) rotate(25.68)" xlink:href="#linear-gradient-3"/><linearGradient id="linear-gradient-22" x1="-288.02" y1="939.31" x2="-261.85" y2="956.06" gradientTransform="translate(684.42 -597.9) rotate(25.68)" xlink:href="#linear-gradient-3"/><linearGradient id="linear-gradient-23" x1="-280.03" y1="934.27" x2="-264.53" y2="950.18" gradientTransform="translate(684.42 -597.9) rotate(25.68)" xlink:href="#linear-gradient"/><linearGradient id="linear-gradient-24" x1="-238.9" y1="839.45" x2="-226.32" y2="893.33" gradientTransform="translate(684.42 -597.9) rotate(25.68)" xlink:href="#linear-gradient"/><linearGradient id="linear-gradient-25" x1="-23.84" y1="881.31" x2="-23.63" y2="864.56" gradientTransform="translate(807.8 -419.19) rotate(49.2)" xlink:href="#linear-gradient"/></defs><g id="圖層_2" data-name="圖層 2"><g id="圖層_1-2" data-name="圖層 1"><path class="cls-1" d="M63.77,58.87a10.31,10.31,0,1,1,14.52,1.24A10.29,10.29,0,0,1,63.77,58.87Z"/><path class="cls-2" d="M34.39,78.69a10.31,10.31,0,1,1,6.5-13A10.31,10.31,0,0,1,34.39,78.69Z"/><path class="cls-3" d="M75.16,41.33S109.07,39.76,109,54.54s-34.58,9.4-34.58,9.4,2.22-4.08,2.45-11.17A32.36,32.36,0,0,0,75.16,41.33Z"/><path class="cls-4" d="M73.62,41a29.09,29.09,0,0,0-7.11,8.6c-3.42,6.71-3.07,10.27-3.07,10.27S49,51.42,52.58,43.73C56.48,35.35,73.62,41,73.62,41Z"/><path class="cls-5" d="M182.6,75.13c-2.22-5.48-16.47-11.34-22.4-10.86-4.11,10.32-15,32.67-36.8,48.38a65,65,0,0,1-16.85,8.57C110,128.82,118,141,124.26,142.81c5.81,1.71,26.62-10.9,40.05-27.22S186.22,84,182.6,75.13Z"/><path class="cls-6" d="M160.2,64.27c1.39-3.5,2-5.62,2-5.62L106.83,44.83a41.3,41.3,0,0,1-23.63,23c-14.57,5.36-22.88-2.75-28.07.1-15.36,8.44,7.15,46,19.66,54.07,5.78,3.74,18.75,3.6,31.76-.82a65,65,0,0,0,16.85-8.57C145.21,96.94,156.09,74.59,160.2,64.27Z"/><path class="cls-7" d="M170.69,45.94c.26-.69.52-1.38.72-2.11a9.89,9.89,0,0,0,.28-1c.21-.76.4-1.52.55-2.31,0,0,0-.06,0-.1.18-.92.33-1.85.44-2.77s.14-1.75.18-2.62a34.35,34.35,0,0,0-.34-6c-.14-.81-.27-1.62-.45-2.41s-.38-1.6-.6-2.37a2.33,2.33,0,0,1-.1-.27,17,17,0,0,0-.9-2.6c0-.05,0-.13-.08-.22-.34-.76-.69-1.52-1.06-2.29s-.71-1.38-1.11-2.1c-.11-.16-.23-.37-.34-.53A27.9,27.9,0,0,0,164.82,12c-.64-.75-1.31-1.47-2-2.15-.5-.5-1-1-1.57-1.44-.13-.12-.26-.25-.4-.36v0a33.88,33.88,0,0,0-7.2-4.71A33.47,33.47,0,0,0,133.48.47c-.16,0-27.7,40.43-27.65,40.72l0,0c.05.21.09.42.13.59.12.5.25,1,.38,1.52s.3,1,.47,1.49.35,1,.53,1.44.39,1,.61,1.45a12.73,12.73,0,0,0,.67,1.4c.2.43.41.83.63,1.23s.57,1,.88,1.5.55.86.86,1.31a26.83,26.83,0,0,0,2,2.57c.3.37.64.76,1,1.1s.7.78,1.08,1.15c.65.65,1.35,1.28,2.06,1.89A32.71,32.71,0,0,0,120,62.05a12.58,12.58,0,0,0,1.33.87c1,.57,1.92,1.11,2.92,1.59a33.91,33.91,0,0,0,45.28-15.85A27.75,27.75,0,0,0,170.69,45.94Z"/><path class="cls-8" d="M150.45,49.22c-6.37,6.6-12.68,9.37-15,9-3.62-.51-8-1.51-20.66-9.93a72.22,72.22,0,0,1-8.93-7.09l0,0c0-.29-.13-.58-.18-.87-.08-.52-.18-1-.26-1.54a32.38,32.38,0,0,1,.22-11c.22-1.13.51-2.25.84-3.36.22-.78.49-1.55.78-2.32.07-.18.12-.37.19-.55v.07c.32-.8.59-1.61,1-2.4A33.85,33.85,0,0,1,133.48.47a68.76,68.76,0,0,1,14.11,10c7.24,6.35,11.85,13.25,13.49,17.57a9.5,9.5,0,0,1,.69,3C161.72,33.9,158.78,40.63,150.45,49.22Z"/><path class="cls-9" d="M128.15,15.68c-4.62,3.39-9.75,4.26-11.45,1.94s.66-7,5.28-10.34S131.72,3,133.43,5.34,132.77,12.29,128.15,15.68Z"/><path class="cls-9" d="M140.51,11.29c-1.55.57-3.1.25-3.45-.72s.61-2.21,2.16-2.78,3.09-.24,3.45.72S142.06,10.72,140.51,11.29Z"/><path class="cls-9" d="M120.07,27.87c-1.34,2.53-3.45,4-4.72,3.37s-1.22-3.27.11-5.81,3.46-4,4.73-3.37S121.41,25.33,120.07,27.87Z"/><path class="cls-10" d="M150.37,109.22a10.36,10.36,0,1,1-7.53-12.57A10.36,10.36,0,0,1,150.37,109.22Z"/><path class="cls-11" d="M129.18,103.42s-1.77-33.9,13-33.87,9.61,34.53,9.61,34.53-4.1-2.19-11.19-2.38A32.24,32.24,0,0,0,129.18,103.42Z"/><path class="cls-12" d="M129.82,111.31A29.12,29.12,0,0,0,141,112.47c7.51-.87,10.3-3.15,10.3-3.15s1,16.77-7.43,18.06C134.66,128.79,129.82,111.31,129.82,111.31Z"/><path class="cls-13" d="M148.2,126.87a6.47,6.47,0,0,0,3.08,3.85c2.33,1.27,6.24.1,6.8,1.9s.46,6.37-1.59,7.24c-3.82,1.63-7.35-1.38-7.35-1.38s2.17,2.5.71,4.16-5.32-1.58-6.9-6.68-1.11-7.44-1.11-7.44Z"/><path class="cls-14" d="M142,130.12a1.73,1.73,0,0,1-2.16-1.14h0a1.72,1.72,0,0,1,1.14-2.16l6.14-1.92a1.74,1.74,0,0,1,2.17,1.14h0a1.73,1.73,0,0,1-1.14,2.16Z"/><path class="cls-15" d="M53.52,39.79a6.41,6.41,0,0,1-3.29-3.66c-.88-2.5.9-6.17-.78-7s-6.21-1.48-7.4.39C39.82,33,42.22,37,42.22,37s-2.12-2.54-4-1.37.7,5.5,5.47,7.89,7.17,2.31,7.17,2.31Z"/><path class="cls-16" d="M49.31,45.38a1.73,1.73,0,0,0,.77,2.32h0a1.73,1.73,0,0,0,2.32-.77l2.89-5.75a1.73,1.73,0,0,0-.77-2.32h0a1.72,1.72,0,0,0-2.32.77Z"/><path class="cls-17" d="M70.36,80C73.45,68.7,37.82,59.18,37.82,59.18s-3.91,2.34-6.06,10-.33,11.55-.33,11.55S67.38,90.92,70.36,80Z"/><path class="cls-18" d="M10.76,60.78C14.62,51.3,30,56.84,30,56.84s-3.74,2.54-6.6,9.49-1.31,11.5-1.31,11.5S7,70.11,10.76,60.78Z"/><path class="cls-19" d="M12.15,57.8l-1.46-1.27a16,16,0,0,0-1.38-7.91,19.6,19.6,0,0,0-3.69-5.14L.27,57.64A4.16,4.16,0,0,0,2.7,63l4.5,1.7H9.54Z"/><path class="cls-20" d="M8.41,66.1A1.61,1.61,0,0,1,7.47,64L10,57.2a1.62,1.62,0,0,1,2.09-.94h0a1.63,1.63,0,0,1,.95,2.09l-2.57,6.81a1.63,1.63,0,0,1-2.1.94Z"/><path class="cls-21" d="M49.6,135.86a10.31,10.31,0,1,0-8.09-12.13A10.31,10.31,0,0,0,49.6,135.86Z"/><path class="cls-22" d="M89,110.74c4.2,11-30.31,24-30.31,24s-4.12-1.94-7-9.31S50.18,114,50.18,114,84.93,100.19,89,110.74Z"/><path class="cls-23" d="M30.72,132.38c3.17,9.74,18.92,5.33,18.92,5.33s-3.55-2.8-5.9-9.94-.48-11.57-.48-11.57S27.61,122.8,30.72,132.38Z"/><path class="cls-24" d="M31.89,135.45l-1.55,1.17a16,16,0,0,1-1.94,7.79,19.68,19.68,0,0,1-4.06,4.86L20,134.76a4.2,4.2,0,0,1,2.82-5.2l4.61-1.36,2.33.18Z"/><path class="cls-25" d="M28.77,126.91a1.62,1.62,0,0,0-1.1,2l2.07,7a1.62,1.62,0,0,0,2,1.09h0a1.63,1.63,0,0,0,1.1-2l-2.07-7a1.62,1.62,0,0,0-2-1.09Z"/><path class="cls-26" d="M102.84,57.69c-1.68.18-4.17,4.19-10.9,8.47-5.44,3.45-11.17,4.15-11.58,5S81,76.43,83.59,81.5C86.83,88,92.7,93.94,94.72,94.56s10.51-1.52,15.9-5.77c6.83-5.37,12.7-14.31,12-15.93S117.32,69.5,111,64.53C105.38,60.07,104.08,57.56,102.84,57.69Z"/><path class="cls-27" d="M135,133.83c-1.62,1.4-3.74,1.6-4.74.45s-.48-3.22,1.14-4.62,3.73-1.6,4.73-.45S136.57,132.43,135,133.83Z"/><path class="cls-28" d="M116.38,78c-1.62,1.4-3.74,1.6-4.73.45s-.49-3.22,1.13-4.62,3.74-1.6,4.73-.44S118,76.58,116.38,78Z"/><path class="cls-28" d="M113.56,77.77c11.28,18.06-15.78,37.34-22.42,52.52-4.42,10.08.1,24.13,9.59,29.58,18.66,10.71,45.3-7.37,34.18-28.57-1-1.92-3.76,0-2.77,1.87,6.12,11.68-1.59,22-12.88,25.87-14.2,4.86-27.49-8.59-25.46-23.91,2.1-15.8,37.07-36,22.54-59.24-1.15-1.83-3.92,0-2.78,1.88Z"/></g></g></svg>