<svg xmlns="http://www.w3.org/2000/svg" viewBox="0 0 387.85 290.15"><defs><style>.cls-1{fill:#754c24;}.cls-2{fill:#d4145a;}.cls-16,.cls-3{fill:#fff;}.cls-4{opacity:0.3;}.cls-5{fill:#595757;}.cls-6{opacity:0.31;}.cls-7{opacity:0.4;}.cls-8{fill:#293856;}.cls-9{opacity:0.54;}.cls-10{opacity:0.35;}.cls-11{fill:#51c5e6;}.cls-12{fill:#150301;}.cls-13{fill:#403b39;}.cls-14{fill:#2b1f1d;}.cls-15,.cls-16{opacity:0.39;}.cls-17{opacity:0.26;}</style></defs><g id="圖層_2" data-name="圖層 2"><g id="圖層_1-2" data-name="圖層 1"><rect class="cls-1" x="136.9" y="49.04" width="6.44" height="244.95" rx="1.01" transform="translate(-74.53 116.97) rotate(-36.49)"/><path class="cls-2" d="M42.35,137.19c9.81-1.23,20.23-4.95,27.49-10.1,8.32-5.91,20.27-14.63,30.51-15.38C93.78,97.31,81.62,86,74.58,71.77c-2.53-5.11-10.86-2.75-14.21.3C53.62,78.21,51,90.49,45.87,98.13,35.77,113.22,19.22,128.45,0,129.77c11.19.24,21.38,7,32.54,7.75A51.07,51.07,0,0,0,42.35,137.19Z"/><path class="cls-3" d="M203.8,240s-20.29-1.17-23.29-17c-1.42-7.54,6.06-8.4,8.61-6.94,4.42,2.52,9.2,14.09,17,10.84l14.87-.78-9.28,19.14Z"/><g class="cls-4"><path class="cls-5" d="M221,226.13l-9.28,19.14L203.8,240s-20.29-1.17-23.29-17a8.61,8.61,0,0,1-.13-2.63c6.48,15.55,25.34,12.47,25.34,12.47l4.72,6.43,6.26-12.92Z"/></g><path class="cls-3" d="M240.74,275.8c4.61,1.19,12.93-.39,12.93-.39a7.83,7.83,0,0,0,5.82-6.62l3.12-25.22a7.83,7.83,0,0,0-3.86-7.74l-10.14-4.47"/><g class="cls-4"><path class="cls-5" d="M262.44,240.75l-2.71,21.92a7.79,7.79,0,0,1-5.82,6.61s-3.07.91-5.83-3.45l-7.34,10,1.18-1.6c4.71.74,11.84-.61,11.84-.61a7.81,7.81,0,0,0,5.82-6.61l3.07-24.85a7.75,7.75,0,0,1,0,1.44l-3.12,25.23a7.83,7.83,0,0,1-5.82,6.61s-1.6.3-3.77.54c2.17-.24,3.77-.54,3.77-.54a7.83,7.83,0,0,0,5.82-6.61l3.12-25.23A7.6,7.6,0,0,0,262.44,240.75Z"/></g><path class="cls-3" d="M229.93,273.33l10.81,2.47a5.51,5.51,0,0,0,6.7-4.71l4.1-33.77a5.34,5.34,0,0,0-4.65-5.94l-11.59-1.44Z"/><path class="cls-5" d="M242.61,276.05a5.53,5.53,0,0,1-1.9-.1l-10.81-2.47a.15.15,0,0,1-.12-.16l5.37-43.4a.12.12,0,0,1,.06-.1.2.2,0,0,1,.11,0l11.59,1.44a5.5,5.5,0,0,1,4.78,6.11l-4.1,33.77a5.65,5.65,0,0,1-2.36,3.95A5.57,5.57,0,0,1,242.61,276.05Zm-12.51-2.83,10.68,2.44a5.36,5.36,0,0,0,6.52-4.59l4.09-33.77a5.2,5.2,0,0,0-4.51-5.77l-11.45-1.42Z"/><path class="cls-3" d="M173.25,266.58c-.09,2.68,2.73,7.86,2.73,7.86s2.34,4.49,4.61,5.65c2.57,1.31,5.21.5,8.11-.88h0l26.58-10.89.57-13.47-11.35-2-2.24-.6s-2.78-.5-9.34,3.25a41,41,0,0,0-11.24,10.71C178.91,261.7,173.4,261.91,173.25,266.58Z"/><g class="cls-4"><path class="cls-5" d="M173.25,266.58c-.09,2.68,2.73,7.86,2.73,7.86s2.34,4.49,4.61,5.65c2.57,1.31,5.21.5,8.11-.88h0l26.58-10.89.26-6.1L189,273.11h0c-2.9,1.39-5.54,2.19-8.11.88-2.28-1.16-4.61-5.65-4.61-5.65a36.31,36.31,0,0,1-2-4.43A3.91,3.91,0,0,0,173.25,266.58Z"/></g><g class="cls-6"><path class="cls-5" d="M194.11,265a.7.7,0,0,1-.59-.36,12.38,12.38,0,0,0-5.76-4.87.7.7,0,1,1,.54-1.3,13.62,13.62,0,0,1,6.46,5.49.7.7,0,0,1-.65,1Z"/></g><polygon class="cls-3" points="229.65 270.85 230.12 270.96 230.5 263.94 229.65 270.85"/><path class="cls-5" d="M230.14,271.11h0l-.48-.11a.16.16,0,0,1-.11-.17l.85-6.91a.15.15,0,0,1,.17-.13.13.13,0,0,1,.13.15l-.38,7a.14.14,0,0,1-.06.11A.09.09,0,0,1,230.14,271.11Zm-.33-.37.17,0,.14-2.54Z"/><g class="cls-7"><path class="cls-5" d="M247.66,239.63a4.62,4.62,0,0,0-4-5.13l-9.36-1.16,1.67.21L232.56,261l-.15,1.18-.38,7-.14,2.76s10.7,2.76,13.18,2.09a6,6,0,0,0,1.48-.64c1.19-1.58,1.93-4,1.34-7.36a3.72,3.72,0,0,1-2.6.64h0a.85.85,0,0,1-.8-1Z"/></g><g class="cls-7"><path class="cls-8" d="M230.5,263.94l.15-1.18-.08,0Z"/><path class="cls-5" d="M230.52,264.09h0a.16.16,0,0,1-.14-.16l.07-1.2a.11.11,0,0,1,.06-.11.13.13,0,0,1,.12,0l.09,0a.15.15,0,0,1,.11.16l-.15,1.17A.16.16,0,0,1,230.52,264.09Z"/></g><path class="cls-5" d="M242.7,276.84a6.63,6.63,0,0,1-2.17-.12l-10.81-2.47a.94.94,0,0,1-.72-1l5.37-43.39a.94.94,0,0,1,.35-.63,1,1,0,0,1,.69-.19l11.6,1.44a6.27,6.27,0,0,1,5.46,7l-4.09,33.77a6.45,6.45,0,0,1-5.68,5.64ZM231,272.61l10,2.28a4.58,4.58,0,0,0,5.56-3.91l4.1-33.77a4.41,4.41,0,0,0-3.83-4.9L236.11,231Z"/><g class="cls-7"><path class="cls-8" d="M230.42,240.29c10.82,4.74,23.08,4.12,27.9,3.64a44.22,44.22,0,0,0-1.51-6.05Z"/><path class="cls-5" d="M258.34,244.09h0c-4.79.49-17.11,1.11-28-3.65a.15.15,0,0,1-.09-.18.18.18,0,0,1,.15-.14l26.39-2.41a.15.15,0,0,1,.17.12,42.41,42.41,0,0,1,1.51,6.07.16.16,0,0,1,0,.13A.17.17,0,0,1,258.34,244.09Zm-27.25-3.69c10.51,4.38,22.23,3.85,27,3.38a44.41,44.41,0,0,0-1.42-5.73Z"/></g><path class="cls-3" d="M196.61,289.53s4,2.44,8.92-2.35c1.37-1.33,2.74-4.31,3.55-7.27,29,7.42,37.46-19.43,33.79-40.33a37.47,37.47,0,0,0-1.35-5.43,31.51,31.51,0,0,0-4.1-8.35l-14.33-7.93s-12.22,4.26-20.72,21.37c-3.58,7.19-3,15.33-2.59,22a9.74,9.74,0,0,0-5.5,4.92c-1.78,3.76.95,13.53.95,13.53s-5.08-1.05-5.75,3S196.61,289.53,196.61,289.53Z"/><g class="cls-4"><path class="cls-5" d="M196.61,289.53s4,2.44,8.92-2.35c1.37-1.33,2.74-4.31,3.55-7.27,25.24,6.52,37.89-13.82,33.7-36.15.77,6.7-11.64,2.43-8.33,6.76,10.38,13.63-8,26-24.73,22.29A2.29,2.29,0,0,0,207,274.6c-.54,2.66-1.54,6.18-3.24,8.43-4.12,5.46-7.61,3.21-7.61,3.21s-4.64-1.62-6.46-4.22a4.32,4.32,0,0,0-.18.71C188.81,286.78,196.61,289.53,196.61,289.53Z"/></g><path class="cls-3" d="M262.43,229.37c1.88.51,4.83,6.09-1.3,10-4.62,3-16.92,3.7-30.71.87"/><path class="cls-5" d="M253,242a75.5,75.5,0,0,1-22.62-1.5.16.16,0,0,1-.13-.19.16.16,0,0,1,.19-.13c12.88,2.64,25.74,2.29,30.59-.85,3.6-2.33,3.77-5,3.54-6.44-.27-1.75-1.35-3.08-2.2-3.31a.16.16,0,0,1-.11-.2.16.16,0,0,1,.2-.12c.94.25,2.14,1.69,2.44,3.58.24,1.49.07,4.34-3.69,6.77A20,20,0,0,1,253,242Z"/><path class="cls-3" d="M262.43,229.37c1.88.51,4.83,6.09-1.3,10-4.62,3-16.92,3.7-30.71.87Z"/><g class="cls-4"><path class="cls-5" d="M263.17,229.79c.49,2.06-.09,4.8-3.54,7-3.91,2.53-13.39,3.43-24.61,1.9Z"/></g><path class="cls-5" d="M262.7,228.36a3.45,3.45,0,0,1,1.63,1.07,6.15,6.15,0,0,1,.92,1.38A6.61,6.61,0,0,1,265,237a8.8,8.8,0,0,1-2,2.34,12.15,12.15,0,0,1-1.2.87,7.19,7.19,0,0,1-.67.37,4.69,4.69,0,0,1-.67.34,17.65,17.65,0,0,1-2.74.92c-.46.1-.92.23-1.38.31l-1.38.24c-.93.11-1.85.24-2.77.29a61.38,61.38,0,0,1-11-.24,85.73,85.73,0,0,1-10.8-1.82.38.38,0,0,1-.28-.45.39.39,0,0,1,.44-.29,92.66,92.66,0,0,0,10.75,1.26l1.35.07,1.34,0c.9,0,1.8,0,2.7,0,.45,0,.89,0,1.34,0s.9,0,1.34-.05c.89-.07,1.79-.11,2.67-.23s1.76-.24,2.63-.37l1.3-.27c.42-.1.84-.23,1.26-.33a16.6,16.6,0,0,0,2.39-.9,3.39,3.39,0,0,0,.53-.29c.17-.1.35-.19.52-.31a12,12,0,0,0,1-.74,6.66,6.66,0,0,0,1.5-1.79,5.11,5.11,0,0,0,.43-1,4.2,4.2,0,0,0,.18-1.07,4.58,4.58,0,0,0-.42-2.12,3.9,3.9,0,0,0-.56-.9,2,2,0,0,0-.57-.47l-.08,0a1,1,0,0,1,.62-2Z"/><g class="cls-7"><path class="cls-5" d="M253.72,267.1a3.67,3.67,0,0,0,.74,0,3,3,0,0,0,2.64-2.54l.86-5.46-1.31-.21-.49,3.08a3,3,0,0,1-2.64,2.54,2.63,2.63,0,0,1-.74,0,3,3,0,0,1-1.67-.78A3,3,0,0,0,253.72,267.1Z"/></g><g class="cls-9"><path class="cls-5" d="M250.27,257h5.88a1.37,1.37,0,0,1,1.37,1.37v5.51a3,3,0,0,1-3,3h-4.28a0,0,0,0,1,0,0V257a0,0,0,0,1,0,0Z" transform="translate(38.65 -32.59) rotate(7.95)"/></g><path class="cls-3" d="M199.32,256.07l14.15,4.42a.49.49,0,0,0,.66-.29l3.64-16.7a.5.5,0,0,0-.48-.54l-14.71-1.86a3.43,3.43,0,0,0-4,2.34l-1.93,8.83A3.46,3.46,0,0,0,199.32,256.07Z"/><g class="cls-4"><path class="cls-5" d="M198.52,243.73l-1.92,8.84a3.44,3.44,0,0,0,2.66,3.79l14.15,4.43a.49.49,0,0,0,.65-.3l1.42-6.49-14.23-2.88a3.44,3.44,0,0,1-3-3.49l.49-4.43A2.55,2.55,0,0,0,198.52,243.73Z"/></g><path class="cls-3" d="M217.38,261.4l-3-.66a.32.32,0,0,1-.25-.38l3.71-17a.32.32,0,0,1,.38-.24l3,.66a1.47,1.47,0,0,1,1.12,1.74l-3.23,14.79A1.46,1.46,0,0,1,217.38,261.4Z"/><g class="cls-4"><path class="cls-5" d="M215.53,253.76l-1.43,6.58a.33.33,0,0,0,.25.4l3,.64a1.54,1.54,0,0,0,1.84-1.18l1.43-6.57a1.54,1.54,0,0,1-1.83,1.18l-3-.65A.33.33,0,0,1,215.53,253.76Z"/></g><path class="cls-5" d="M218,262.36a2.35,2.35,0,0,1-.79,0h0l-3-.67a1.27,1.27,0,0,1-1-1.49l3.71-17a1.3,1.3,0,0,1,.55-.79,1.27,1.27,0,0,1,.95-.17l3.05.67a2.39,2.39,0,0,1,1.83,2.85L220,260.49A2.41,2.41,0,0,1,218,262.36Zm-.38-1.88a.5.5,0,0,0,.39-.07.54.54,0,0,0,.23-.32l3.22-14.79a.54.54,0,0,0-.07-.39.52.52,0,0,0-.33-.23l-2.44-.53L215.14,260Z"/><path class="cls-3" d="M241.61,255.27c-4.06-.26-13.2-1.13-20.56-3.88a2.09,2.09,0,0,0-2.78,1.56l0,.15a2.09,2.09,0,0,0,1.28,2.35c7.58,3,17.38,4.5,21.57,5a2,2,0,0,0,2.26-1.79l.13-1.21A2,2,0,0,0,241.61,255.27Z"/><g class="cls-10"><path class="cls-5" d="M218.27,253l0,.14a2.1,2.1,0,0,0,1.28,2.36c7.58,3,17.38,4.5,21.57,5a2,2,0,0,0,2.26-1.79l.13-1.21v-.09a2,2,0,0,1-1.9.83c-4.19-.54-14-2-21.57-5a2.07,2.07,0,0,1-1.21-1.28A2.11,2.11,0,0,0,218.27,253Z"/></g><path class="cls-3" d="M240.45,239.3s18.07,9.33,14.35,25c-1.77,7.47-9,5.2-10.69,2.84-3-4.11-2.67-16.63-11.09-16.82"/><g class="cls-7"><path class="cls-5" d="M255,263.3c-.06.34-.13.69-.21,1-1.77,7.46-9,5.2-10.69,2.84-3-4.11-2.67-16.62-11.09-16.82h0a4.38,4.38,0,0,1,5.75-1c5.11,3.2,4.78,10.12,7.18,13.39C247.34,264.64,252.21,266.47,255,263.3Z"/></g><ellipse class="cls-11" cx="261.89" cy="123.65" rx="123.58" ry="125.99" transform="matrix(0.14, -0.99, 0.99, 0.14, 103.21, 365.92)"/><path class="cls-12" d="M239.48,87.49s21.81-32.72-12.59-40.75c0,0-11-2.73-16.38,7.47,0,0-18.2,19.8,14.35,40.17Z"/><path class="cls-13" d="M231.32,58.6s3.74,5.89,4.43,16.28l-17.54,5.39s-6.07-9.19-3.63-14.16S222.33,52.51,231.32,58.6Z"/><path class="cls-12" d="M311.18,101.07s11.32-23.31,27-17.15c0,0,18.11,8,14.16,20.61,0,0,0,22.91-20.06,21.06l-15.61-1.9Z"/><path class="cls-13" d="M319,99.18s10.55-9.81,17.86-3.67-1.33,24.77-18.51,16.06Z"/><path class="cls-12" d="M161.28,188.86c-22-43.28,6.19-78.68,59.75-116.4,13.22-9.32,94.64-8.52,110.57,39.25,8.85,26.51,13.5,54.46,11,66.78-3.44,17.24-9.95,48.78-38.07,59.78C301.4,239.51,207.6,275,161.28,188.86Z"/><path class="cls-3" d="M296.19,148.17c-.71,6-4.77,10.47-9.06,10s-7.22-5.79-6.51-11.78,4.76-10.45,9.06-9.95S296.9,142.18,296.19,148.17Z"/><path class="cls-3" d="M219.47,126.88c-3.7,4.78-9.48,6.51-12.9,3.85s-3.2-8.67.5-13.46,9.47-6.49,12.9-3.84S223.16,122.11,219.47,126.88Z"/><path class="cls-3" d="M245.57,136.33s32.85,10.8,23.93,35.4c0,0-12.82,19.22-39.09,7.67,0,0-29.9-16.77-17.94-35.83C212.47,143.57,225,129.16,245.57,136.33Z"/><path class="cls-12" d="M233.6,140.93c-1.75.31-4,1.88-4,3.35s3.19,8.48,6,9.55,12.64,0,14.26-.62,3-5.88,1.79-6.7-7.63-.75-11.82-2.85C236.78,142.13,234.27,140.81,233.6,140.93Z"/><path class="cls-14" d="M233.65,141.74c-1.51.2-3.4,1.41-3.41,2.61s3,7.54,5.53,8.48,10.51.26,11.9-.21,2.53-5.05,1.37-5.4c-1.66-.49-6.14-1.14-9.84-3C236.51,142.94,234.23,141.66,233.65,141.74Z"/><path class="cls-13" d="M233.7,142.54c-1.28.11-2.83,1-2.8,1.87s2.88,6.6,5,7.42,8.37.5,9.53.19,2.06-4.09,1-4.08c-2.2,0-4.65-1.55-7.86-3.08C236.24,143.75,234.19,142.51,233.7,142.54Z"/><path class="cls-12" d="M226,156.15c-2.23,14.69,18.53,17.36,23.67,7.2.47-.93-3.48-1.54-4.51-1.59a34.41,34.41,0,0,1-17.75-6C226.64,155.23,226.08,155.28,226,156.15Z"/><path class="cls-12" d="M289.71,142a6.29,6.29,0,0,0-3.69.69,30,30,0,0,0-2.67,1.83,1.89,1.89,0,0,0-.91,1.59,1.83,1.83,0,0,0,.91,1.59,35.43,35.43,0,0,1,3.21,1.88,20.67,20.67,0,0,0,3.65,1.81,1.85,1.85,0,0,0,1.42-.18,1.84,1.84,0,0,0-.44-3.37l-.5-.19c-.22-.09.38.16.08,0l-.19-.09q-.42-.18-.81-.39c-.49-.26-1-.55-1.43-.84a33.75,33.75,0,0,0-3.13-1.84v3.18c.71-.48,1.37-1,2.08-1.48l.45-.28.2-.11c.07,0,.4-.18.06,0s0,0,.07,0l.22-.07a3.47,3.47,0,0,1,.56-.11l-.49.06a6.1,6.1,0,0,1,1.35,0,1.84,1.84,0,0,0,1.3-3.14,2.08,2.08,0,0,0-1.3-.54Z"/><path class="cls-12" d="M212.16,118.56c.53.89,1.08,1.78,1.56,2.7.12.23.24.45.34.69s.13.27.19.4.06.14-.05-.12l.09.21a15.37,15.37,0,0,1,.57,1.74l2.27-2.26a71.94,71.94,0,0,1-6.91-2.18A1.86,1.86,0,0,0,208,121a1.9,1.9,0,0,0,1.29,2.26c2.27.86,4.57,1.55,6.91,2.18a1.86,1.86,0,0,0,2.26-2.27,26,26,0,0,0-3.08-6.5,1.84,1.84,0,1,0-3.17,1.86Z"/><g class="cls-15"><ellipse class="cls-3" cx="305.14" cy="119.3" rx="78.83" ry="67.65" transform="translate(66.47 343.76) rotate(-64.6)"/></g><path class="cls-16" d="M151,89.16S203.55-35.46,327.11,29.71C319.08,30.63,207.69,5,151,89.16Z"/><g class="cls-17"><ellipse class="cls-11" cx="261.89" cy="123.65" rx="123.58" ry="125.99" transform="matrix(0.14, -0.99, 0.99, 0.14, 103.21, 365.92)"/></g></g></g></svg>