<svg xmlns="http://www.w3.org/2000/svg" viewBox="0 0 385.53 57.21"><defs><style>.cls-1{fill:#389696;}.cls-2{fill:#2d4c72;}</style></defs><g id="圖層_2" data-name="圖層 2"><g id="圖層_1-2" data-name="圖層 1"><path class="cls-1" d="M56.51,44.83H0V38.06H23.58V35.73h-21V29h21V26.85H3.5V2.8H53V26.85H32.92V29h21v6.77h-21v2.33H56.51ZM4.9,46l9.11.7q-.93,2.1-2.57,6.31-1.17,2.81-1.87,4.2Q5.37,56.51.23,56q.71-1.63,2.1-4.67A46.68,46.68,0,0,0,4.9,46ZM12.14,9.81v10h4.91c-.32-.47-1.09-1.48-2.34-3-.93-1.4-1.71-2.49-2.33-3.27l5.13-3.73ZM24.75,46.7c.16.63.39,1.64.7,3a32.64,32.64,0,0,1,1.4,5.84l-9.1.46a50.79,50.79,0,0,0-1.87-9.1Zm-1.4-30.82-5.84,4h6.07v-10H18c.47.46,1.09,1.16,1.87,2.1A29.31,29.31,0,0,1,23.35,15.88Zm14,30.35a56.42,56.42,0,0,1,3.74,8.88l-9.11.7q-.7-2.34-2.33-6.54a18.37,18.37,0,0,1-.94-2.57Zm-4.2-30.35a14.33,14.33,0,0,0,1.17-1.4c1.71-1.87,3-3.42,4-4.67H32.92v10h5.14Zm11.21,4v-10H38.76L44.13,14c-1.86,2-3.73,4-5.6,5.84ZM51.14,46q.7,1.41,2.1,4c1.24,2.34,2.18,4.12,2.8,5.37l-9.1,1.17q-2.11-4.68-4.67-9.81Z"/><path class="cls-1" d="M88.64,3.5c1.24,1.4,2.88,3.35,4.9,5.84C95,10.9,96,12.14,96.81,13.08V.93h8.64V6.3A86.48,86.48,0,0,0,113.86,3q2.1-.93,3.27-1.41l3.74,5.61-6.54,2.57a7.09,7.09,0,0,0,1.4.46,51.37,51.37,0,0,0,5.37,1.41,37.86,37.86,0,0,1-1.17,6.07q-1.4,4.44-7.7,4.43h-7.71q-7.71,0-7.71-6.77l-4.2,2.34h1.64V37.36q.23,6.07-5.84,6.54H85.14c-2,.16-3.5.23-4.44.23a21.27,21.27,0,0,0-1.4-5.83c1.87.15,3.5.23,4.9.23q2.34-.47,2.34-2.1h-10v7.7H68.79V17.75H91c-.47-.62-1-1.4-1.64-2.34H87.47q-7.93.48-12.84.47a15.21,15.21,0,0,1-3.27.23q-2.34.24-3.27.24L65.76,10A24.08,24.08,0,0,0,69,9.81,84.85,84.85,0,0,0,77.43,0l8.41,2.33a107,107,0,0,1-7.71,7.48l6.77-.24a6.64,6.64,0,0,1-.7-.93,20.61,20.61,0,0,1-1.63-2.1Zm-18,41.1L79.53,46c-.78,2.34-2.25,6-4.43,11a3.73,3.73,0,0,1-1.17-.24Q69,55.57,66,55.11,68.56,50,70.66,44.6ZM76.5,23.35v2.1h10v-2.1Zm0,6.54v1.87h10V29.89ZM90.28,45.53c.31,1.25.77,3,1.4,5.14q.69,3.27,1.16,5.14l-9.57.47A76.69,76.69,0,0,0,81.4,46Zm13.31-.46q2.1,4.91,3.73,9.81L98,55.81c-.31-1.25-.86-3-1.63-5.14-.63-2-1.17-3.65-1.64-4.9ZM116.9,22.42l3.73,6.07-6.07,2.33c.78.16,2,.47,3.5.94a22.35,22.35,0,0,1,3.27.93,52.79,52.79,0,0,1-1.4,6.77q-.93,4.22-7.7,4.44h-7.48q-7.94,0-7.94-7v-14h8.64v4.21a99.69,99.69,0,0,0,9.58-4C115.8,22.81,116.43,22.57,116.9,22.42Zm-3.74-8.88a17.65,17.65,0,0,0,.7-3.5c-.62.16-1.56.47-2.8.93l-5.61,1.87v.47c-.15,1.56.7,2.26,2.57,2.1h2.57A2.35,2.35,0,0,0,113.16,13.54Zm-.23,21.72a30.88,30.88,0,0,0,.7-4c-2.65.93-5.37,1.87-8.18,2.8v.7c0,1.56.86,2.34,2.57,2.34h2.34C111.91,37.13,112.77,36.51,112.93,35.26Zm4.67,9.11c.31.78.85,2,1.63,3.5q2.1,4.2,3.27,6.77l-9.34,1.64c-.47-1.09-.62-1.49-.47-1.17q-2.56-5.84-4.43-9.34Z"/><path class="cls-2" d="M133.38,13.54h21c0-1.71.07-4.2.23-7.47V1.17h10.51a58,58,0,0,0-.23,6.07q-.24,4.2-.24,6.3h21.48v9.34H165.61q3.49,16.59,22.88,24.76a71.7,71.7,0,0,0-6.77,8.4q-17.28-9.1-21.95-24-4.91,14.72-22.19,25a52.23,52.23,0,0,0-6.53-8.41q17.5-9.57,22.18-25.69H133.38Zm25.45,28Q160.24,43,163,46q2.57,2.8,3.73,4l-7.47,5.84q-3.27-4.2-7.47-8.87Z"/><path class="cls-2" d="M237,21.72h2.8c1.24.15,1.79-.62,1.63-2.34q1.64.95,8.41,1.87-.7,6.54-7.47,6.3h-9.81q-5.61.24-5.37-5.6V15.18h-5.37q.93,11.2-15.18,14.48a23.32,23.32,0,0,0-3.74-6.78q12.84-1.86,11.45-7.7H208v4.43h-9.34V6.54h22.42V.47h9.34V6.54h21.95V19.61H243V15.18h-8.18v4.9C234.71,21.33,235.41,21.87,237,21.72Zm15.41,24.51v8.41H198.67V46.23h22v-7.7H205.44V30.12h40.17v8.41H230.43v7.7Z"/><path class="cls-2" d="M291.75,23.58H317V37.83h-6.54v2.33h9.11v6.78h-9.11v.7q0,8.63-9.11,8.87H290.81c-.15-.62-.39-1.56-.7-2.8-.46-1.72-.85-3-1.16-4q3.26.23,7.94.23,4.2,0,4-3H281l5.37,3L281,56c-3.12-2.33-6.07-4.36-8.88-6.07l3-3H263V40.16h37.82V37.83h-9.1Zm-25.69,5.84V23.58h23.12v5.84h-7.24V32l8.17-.47c-.15,2.19-.23,4.21-.23,6.08L278,38.3l-12.14.7-.93-6.31,8.63-.47v-2.8ZM312.53,2.57V9.34h5.37v5.84h-5.37V22H269.8V17.28H303v-2.1H265.83V9.34H303V7.47H269.8V2.57ZM299.92,29.19v3h8.87v-3Z"/><path class="cls-2" d="M329.48,7.24h14.25A55.5,55.5,0,0,1,344.66.7h9.81a42.55,42.55,0,0,1-.93,6.54h31v9.11H351.9a14.85,14.85,0,0,0-.46,2.33c-.32,1.09-.55,1.95-.71,2.57h29.19v8.87a54.45,54.45,0,0,1-10.5,13.55q5.83,2.56,16.11,4a56.39,56.39,0,0,0-4.67,8.87A69.18,69.18,0,0,1,361.24,50a86.9,86.9,0,0,1-18.68,7,54.61,54.61,0,0,0-3.73-6.31,18.13,18.13,0,0,1-1.17-1.87,97.22,97.22,0,0,0,15.64-5.13q-3.49-4-7.47-9.11l6.77-4.9h-4.67a83.19,83.19,0,0,1-15.64,24.75q-.71-2.1-2.57-6.77c-.63-1.56-1.09-2.65-1.4-3.27q9.57-10.51,13.54-28H329.48Zm24.06,22.42a37.65,37.65,0,0,0,7.7,9.1,32.87,32.87,0,0,0,8.18-9.1Z"/></g></g></svg>