<svg xmlns="http://www.w3.org/2000/svg" viewBox="0 0 105.85 14.14"><defs><style>.cls-1{fill:#150301;}.cls-2{fill:#fff;}</style></defs><g id="圖層_2" data-name="圖層 2"><g id="圖層_1-2" data-name="圖層 1"><path class="cls-1" d="M11.13,0H10C7,0,3.72.45,1.45,2.76-.46,4.7.25,7.8,1.43,10a6.43,6.43,0,0,0,3.93,3.28,10.24,10.24,0,0,0,2.14.23c2.83.11,8.2,0,9.46-3.2a5.61,5.61,0,0,0,.27-2.48,2.36,2.36,0,0,1,.12-1.27c.7-1.36,2.62-.64,3.7-1.13s1.78-2.17.57-3a2.6,2.6,0,0,0-.82-.3C17.55,1.37,14.54,0,11.13,0Z"/><path class="cls-2" d="M11.13,0A31.74,31.74,0,0,0,7.48.17a12,12,0,0,0-3.5,1A7.33,7.33,0,0,0,1.21,3.33a4.56,4.56,0,0,0-.6,3.35A9.85,9.85,0,0,0,1.86,10a6.47,6.47,0,0,0,2.39,2.37,4.82,4.82,0,0,0,1.56.54A13.72,13.72,0,0,0,7.55,13a24.78,24.78,0,0,0,3.56-.11,10.83,10.83,0,0,0,3.35-.82c.13-.05.25-.13.37-.19a3,3,0,0,0,.35-.21l.33-.23.29-.27a3.09,3.09,0,0,0,.8-1.33,5.64,5.64,0,0,0,.19-1.66c0-.29,0-.59,0-1a1.89,1.89,0,0,1,.1-.56,1.83,1.83,0,0,1,.28-.52,1.92,1.92,0,0,1,.94-.64,3.62,3.62,0,0,1,1-.15,7.23,7.23,0,0,0,1.73-.11,1.88,1.88,0,0,0,1.1-1.09,1.21,1.21,0,0,0-.31-1.43,1.64,1.64,0,0,0-.75-.36L20,2.09c-.58-.17-1.16-.37-1.74-.55-1.16-.38-2.32-.77-3.5-1A16.26,16.26,0,0,0,11.13,0Zm0,0a26.62,26.62,0,0,1,7.16,1.38c.58.17,1.17.32,1.76.47l.89.2a2.2,2.2,0,0,1,.9.38,1.54,1.54,0,0,1,.57.85,2,2,0,0,1-.05,1A2.36,2.36,0,0,1,21,5.78a7.35,7.35,0,0,1-1.88.27,1.7,1.7,0,0,0-1.33.57,1,1,0,0,0-.13.28,1.18,1.18,0,0,0,0,.34c0,.25,0,.55.07.87a6.28,6.28,0,0,1-.13,2,4.37,4.37,0,0,1-1,1.81l-.37.36-.4.31a2.8,2.8,0,0,1-.43.27c-.14.08-.28.17-.43.24a12,12,0,0,1-3.71,1,27.4,27.4,0,0,1-3.73.08,12.78,12.78,0,0,1-1.9-.2,5.94,5.94,0,0,1-1.86-.72,7.27,7.27,0,0,1-2.61-2.84A10.38,10.38,0,0,1,0,6.75,5,5,0,0,1,.92,3.12,7.75,7.75,0,0,1,3.92,1,11.87,11.87,0,0,1,7.48.13,31.73,31.73,0,0,1,11.13,0Z"/><path class="cls-1" d="M94.72,0h1.09c3.09,0,6.31.44,8.58,2.75,1.91,1.94,1.21,5,0,7.27a6.38,6.38,0,0,1-3.93,3.28,10.14,10.14,0,0,1-2.13.23c-2.83.11-8.21,0-9.46-3.2a5.61,5.61,0,0,1-.27-2.48,2.36,2.36,0,0,0-.12-1.27c-.7-1.36-2.62-.64-3.7-1.13s-1.78-2.17-.57-3a2.55,2.55,0,0,1,.81-.3C88.29,1.37,91.3,0,94.72,0Z"/><path class="cls-2" d="M94.72,0a31.73,31.73,0,0,1,3.65.13,11.94,11.94,0,0,1,3.56.85,7.64,7.64,0,0,1,3,2.14,5,5,0,0,1,.89,3.63,10.4,10.4,0,0,1-1.11,3.6,7.12,7.12,0,0,1-2.61,2.84,5.8,5.8,0,0,1-1.85.72,12.78,12.78,0,0,1-1.9.2A27.37,27.37,0,0,1,94.61,14a12,12,0,0,1-3.71-1c-.15-.07-.29-.16-.44-.24a2.72,2.72,0,0,1-.42-.27l-.41-.31-.36-.36a4.15,4.15,0,0,1-1-1.81,6,6,0,0,1-.13-2c0-.32.07-.62.07-.87a1.18,1.18,0,0,0,0-.34A1,1,0,0,0,88,6.62a1.66,1.66,0,0,0-1.32-.57,7.36,7.36,0,0,1-1.89-.27A2.37,2.37,0,0,1,83.49,4.3a1.77,1.77,0,0,1,0-1A1.49,1.49,0,0,1,84,2.43a2.15,2.15,0,0,1,.9-.38l.89-.2c.59-.15,1.18-.3,1.76-.47A26.62,26.62,0,0,1,94.72,0Zm0,0a16.26,16.26,0,0,0-3.61.49c-1.19.28-2.34.67-3.5,1.05-.58.18-1.16.38-1.75.55L85,2.35a1.75,1.75,0,0,0-.75.36,1.2,1.2,0,0,0-.3,1.43A1.89,1.89,0,0,0,85,5.23a7.28,7.28,0,0,0,1.74.11,3.68,3.68,0,0,1,1,.15,1.89,1.89,0,0,1,.93.64,1.63,1.63,0,0,1,.29.52,2.28,2.28,0,0,1,.1.56c0,.36,0,.66,0,1a6,6,0,0,0,.18,1.66,3.3,3.3,0,0,0,.8,1.33l.29.27.33.23a3.1,3.1,0,0,0,.36.21c.12.06.23.14.36.19a11,11,0,0,0,3.35.82A24.92,24.92,0,0,0,98.3,13a13.85,13.85,0,0,0,1.74-.12,4.85,4.85,0,0,0,1.55-.54A6.49,6.49,0,0,0,104,10a9.62,9.62,0,0,0,1.24-3.27,4.51,4.51,0,0,0-.59-3.35,7.29,7.29,0,0,0-2.78-2.21,12,12,0,0,0-3.5-.95A31.47,31.47,0,0,0,94.72,0Z"/></g></g></svg>