<svg xmlns="http://www.w3.org/2000/svg" viewBox="0 0 125.52 98.95"><defs><style>.cls-1{isolation:isolate;}.cls-2{fill:#e2ede2;}.cls-3{fill:#362117;}.cls-4{fill:#0d2946;mix-blend-mode:screen;}.cls-5{fill:#a4b3d7;mix-blend-mode:multiply;}.cls-6{fill:#06c755;}.cls-7{fill:#fff;}</style></defs><g class="cls-1"><g id="圖層_2" data-name="圖層 2"><g id="圖層_1-2" data-name="圖層 1"><path class="cls-2" d="M78.81,70.94a8.5,8.5,0,0,1-3.6,11.44L47.64,96.78a8.5,8.5,0,0,1-11.44-3.6L2.18,28A8.5,8.5,0,0,1,5.77,16.57L33.34,2.18A8.5,8.5,0,0,1,44.79,5.77Z"/><path class="cls-3" d="M43.75,99a10,10,0,0,1-2.94-.45,9.67,9.67,0,0,1-5.69-4.76L1.1,28.57A9.71,9.71,0,0,1,5.21,15.49L32.78,1.1A9.71,9.71,0,0,1,45.86,5.2l34,65.17a9.72,9.72,0,0,1-4.11,13.09L48.2,97.85A9.57,9.57,0,0,1,43.75,99ZM37.25,2.43a7.21,7.21,0,0,0-3.35.82L6.33,17.65a7.18,7.18,0,0,0-3.56,4.26,7.25,7.25,0,0,0,.48,5.54l34,65.17a7.3,7.3,0,0,0,9.81,3.08L74.65,81.31a7.28,7.28,0,0,0,3.08-9.81l-34-65.17A7.28,7.28,0,0,0,37.25,2.43Z"/><path class="cls-4" d="M33.34,2.18,5.77,16.57A8.5,8.5,0,0,0,2.18,28l.49.94A8.5,8.5,0,0,1,6.26,17.51L33.83,3.12A8.5,8.5,0,0,1,45.28,6.71l-.49-.94A8.5,8.5,0,0,0,33.34,2.18Z"/><path class="cls-5" d="M74.26,81,46.69,95.39a8.5,8.5,0,0,1-11.15-3.46l.66,1.25a8.5,8.5,0,0,0,11.44,3.6l27.57-14.4a8.5,8.5,0,0,0,3.6-11.44l-.66-1.25C80,73.3,78.4,78.83,74.26,81Z"/><rect class="cls-6" x="6" y="33.4" width="46.18" height="46.18" rx="10.41" transform="translate(-22.98 20.07) rotate(-27.78)"/><path class="cls-7" d="M41.69,47.39c-3.21-6.09-11.93-7.83-19.44-3.87s-11,12.13-7.8,18.23c2.88,5.46,10.13,7.48,17.13,4.9.5-.14,1.21-.26,1.56,0a3.18,3.18,0,0,1,.69,1.21s.35,1,.42,1.27.44,1.49,1.57.11,5.41-8.75,6.53-13.55h0A11.07,11.07,0,0,0,41.69,47.39Z"/><path class="cls-6" d="M39,53.3l-3.82,2h0a.3.3,0,0,1-.4-.13h0l-3.13-5.93h0a.3.3,0,0,1,.12-.4h0l3.82-2A.3.3,0,0,1,36,47l.5,1a.28.28,0,0,1-.12.39l-2.6,1.37.53,1,2.6-1.37a.3.3,0,0,1,.4.12l.51,1a.3.3,0,0,1-.13.4l-2.6,1.37.53,1,2.6-1.37a.3.3,0,0,1,.4.12l.51,1A.3.3,0,0,1,39,53.3Z"/><path class="cls-6" d="M24.86,60.76a.3.3,0,0,0,.12-.4l-.51-1a.3.3,0,0,0-.4-.13l-2.6,1.37L19,55.92a.31.31,0,0,0-.4-.12l-1,.51a.3.3,0,0,0-.12.4l3.13,5.94h0a.3.3,0,0,0,.4.13h0Z"/><rect class="cls-6" x="24.14" y="52.91" width="1.68" height="7.31" rx="0.29" transform="translate(-23.49 18.16) rotate(-27.78)"/><path class="cls-6" d="M30.33,49.62l-1,.5a.3.3,0,0,0-.13.4l1.86,3.53-4.65-2.24h-.28l-1,.51a.29.29,0,0,0-.12.39l3.13,5.95a.3.3,0,0,0,.4.12l1-.51a.29.29,0,0,0,.12-.39l-1.86-3.53,4.66,2.24a.19.19,0,0,0,.1,0h.1l.08,0,1-.51a.29.29,0,0,0,.12-.4l-3.13-5.94A.3.3,0,0,0,30.33,49.62Z"/><circle class="cls-7" cx="95.85" cy="49.48" r="4.64"/><circle class="cls-7" cx="119.3" cy="49.48" r="6.21"/></g></g></g></svg>