<svg xmlns="http://www.w3.org/2000/svg" xmlns:xlink="http://www.w3.org/1999/xlink" viewBox="0 0 190.67 182.03"><defs><style>.cls-1{fill:none;}.cls-2{clip-path:url(#clip-path);}.cls-3{fill:url(#未命名漸層_56);}.cls-4{fill:url(#未命名漸層_58);}.cls-5{fill:url(#未命名漸層_58-2);}.cls-6{fill:url(#未命名漸層_61);}.cls-7{fill:url(#未命名漸層_58-3);}.cls-8{fill:url(#未命名漸層_61-2);}.cls-9{fill:url(#未命名漸層_58-4);}.cls-10{fill:url(#未命名漸層_61-3);}.cls-11{fill:url(#未命名漸層_58-5);}.cls-12{fill:url(#未命名漸層_61-4);}.cls-13{fill:url(#未命名漸層_58-6);}.cls-14{fill:url(#未命名漸層_58-7);}.cls-15{fill:url(#未命名漸層_61-5);}.cls-16{fill:#fff;opacity:0.3;}</style><clipPath id="clip-path" transform="translate(11.64 9.85)"><circle class="cls-1" cx="86.09" cy="86.09" r="86.09"/></clipPath><linearGradient id="未命名漸層_56" x1="11.64" y1="95.94" x2="183.83" y2="95.94" gradientUnits="userSpaceOnUse"><stop offset="0" stop-color="#fbe180"/><stop offset="1" stop-color="#fde17e"/></linearGradient><linearGradient id="未命名漸層_58" x1="0.08" y1="115.55" x2="172.18" y2="115.55" gradientUnits="userSpaceOnUse"><stop offset="0" stop-color="#fbc880"/><stop offset="1" stop-color="#fde17e"/></linearGradient><linearGradient id="未命名漸層_58-2" x1="68.56" y1="125.66" x2="102.78" y2="125.66" xlink:href="#未命名漸層_58"/><linearGradient id="未命名漸層_61" x1="60.43" y1="117.57" x2="91.13" y2="117.57" gradientUnits="userSpaceOnUse"><stop offset="0" stop-color="#dda380"/><stop offset="1" stop-color="#fde17e"/></linearGradient><linearGradient id="未命名漸層_58-3" x1="112.63" y1="80.86" x2="132.3" y2="80.86" xlink:href="#未命名漸層_58"/><linearGradient id="未命名漸層_61-2" x1="103.01" y1="72.02" x2="120.65" y2="72.02" xlink:href="#未命名漸層_61"/><linearGradient id="未命名漸層_58-4" x1="68.56" y1="20.53" x2="109.62" y2="20.53" xlink:href="#未命名漸層_58"/><linearGradient id="未命名漸層_61-3" x1="61.13" y1="12.79" x2="97.98" y2="12.79" xlink:href="#未命名漸層_61"/><linearGradient id="未命名漸層_58-5" x1="3.72" y1="71.02" x2="53.55" y2="71.02" xlink:href="#未命名漸層_58"/><linearGradient id="未命名漸層_61-4" x1="-2.81" y1="63.73" x2="41.91" y2="63.73" xlink:href="#未命名漸層_61"/><linearGradient id="未命名漸層_58-6" x1="119.22" y1="122.41" x2="190.67" y2="122.41" xlink:href="#未命名漸層_58"/><linearGradient id="未命名漸層_58-7" x1="122.46" y1="122.41" x2="187.42" y2="122.41" xlink:href="#未命名漸層_58"/><linearGradient id="未命名漸層_61-5" x1="117.49" y1="115.9" x2="175.78" y2="115.9" xlink:href="#未命名漸層_61"/></defs><g id="圖層_2" data-name="圖層 2"><g id="圖層_1-2" data-name="圖層 1"><g class="cls-2"><circle class="cls-3" cx="97.73" cy="95.94" r="86.09"/><path class="cls-4" d="M167.78,58.92c0,1,.08,2.1.08,3.16A86.09,86.09,0,0,1,.08,89.25a86.08,86.08,0,1,0,167.7-30.33Z" transform="translate(11.64 9.85)"/><circle class="cls-5" cx="85.67" cy="125.66" r="17.11"/><path class="cls-6" d="M84.38,102.21a17.09,17.09,0,0,1-23.95,24,17.09,17.09,0,1,0,23.95-24Z" transform="translate(11.64 9.85)"/><circle class="cls-7" cx="122.46" cy="80.86" r="9.83"/><path class="cls-8" d="M116.77,63.2A9.82,9.82,0,0,1,103,77,9.82,9.82,0,1,0,116.77,63.2Z" transform="translate(11.64 9.85)"/><circle class="cls-9" cx="89.09" cy="20.53" r="20.53"/><path class="cls-10" d="M89.87-5.63a20.5,20.5,0,0,1-16.31,33,20.38,20.38,0,0,1-12.43-4.22A20.51,20.51,0,1,0,89.87-5.63Z" transform="translate(11.64 9.85)"/><circle class="cls-11" cx="28.63" cy="71.02" r="24.91"/><path class="cls-12" d="M32.07,41.38A24.88,24.88,0,0,1-2.81,76.26,24.89,24.89,0,1,0,32.07,41.38Z" transform="translate(11.64 9.85)"/><circle class="cls-13" cx="154.94" cy="122.41" r="35.73"/><circle class="cls-14" cx="154.94" cy="122.41" r="32.48"/><path class="cls-15" d="M163,86.75a32.44,32.44,0,0,1-45.47,45.47A32.45,32.45,0,1,0,163,86.75Z" transform="translate(11.64 9.85)"/><ellipse class="cls-16" cx="31.25" cy="83.57" rx="55.56" ry="41.8" transform="translate(-45.94 101.7) rotate(-74.82)"/></g></g></g></svg>