<svg xmlns="http://www.w3.org/2000/svg" viewBox="0 0 511.29 166.88"><defs><style>.cls-1{fill:#57c9b3;}.cls-2{fill:#fff;}</style></defs><g id="圖層_2" data-name="圖層 2"><g id="圖層_1-2" data-name="圖層 1"><path class="cls-1" d="M474.11,4.5H37.18A32.68,32.68,0,0,0,4.5,37.18V159.76l69.51-33h400.1a32.68,32.68,0,0,0,32.68-32.68V37.18A32.68,32.68,0,0,0,474.11,4.5Z"/><path class="cls-2" d="M0,166.88V37.18A37.22,37.22,0,0,1,37.18,0H474.11a37.22,37.22,0,0,1,37.18,37.18V94.06a37.22,37.22,0,0,1-37.18,37.18H75ZM37.18,9A28.21,28.21,0,0,0,9,37.18V152.64l64-30.4H474.11a28.21,28.21,0,0,0,28.18-28.18V37.18A28.21,28.21,0,0,0,474.11,9Z"/></g></g></svg>