<svg xmlns="http://www.w3.org/2000/svg" viewBox="0 0 333.23 111.84"><defs><style>.cls-1{fill:#60aee2;}.cls-2{fill:#fff;}</style></defs><g id="圖層_2" data-name="圖層 2"><g id="圖層_1-2" data-name="圖層 1"><path class="cls-1" d="M307.63,107.34h-282A21.1,21.1,0,0,1,4.5,86.24V7.12L49.37,28.43H307.63a21.1,21.1,0,0,1,21.1,21.1V86.24A21.1,21.1,0,0,1,307.63,107.34Z"/><path class="cls-2" d="M307.63,111.84h-282A25.62,25.62,0,0,1,0,86.24V0L50.38,23.93H307.63a25.62,25.62,0,0,1,25.6,25.6V86.24A25.62,25.62,0,0,1,307.63,111.84ZM9,14.24v72a16.61,16.61,0,0,0,16.59,16.6h282a16.62,16.62,0,0,0,16.6-16.6V49.53a16.62,16.62,0,0,0-16.6-16.6H48.35Z"/></g></g></svg>