<svg xmlns="http://www.w3.org/2000/svg" xmlns:xlink="http://www.w3.org/1999/xlink" viewBox="0 0 131.04 136.16"><defs><style>.cls-1{fill:url(#linear-gradient);}.cls-2{fill:#fff;}.cls-3{fill:#ffe6f7;}</style><linearGradient id="linear-gradient" x1="67.02" y1="76.71" x2="136.73" y2="139.32" gradientTransform="translate(94.86 -34.97) rotate(45)" gradientUnits="userSpaceOnUse"><stop offset="0" stop-color="#f5ef64"/><stop offset="1" stop-color="#0063ed"/></linearGradient></defs><g id="圖層_2" data-name="圖層 2"><g id="圖層_1-2" data-name="圖層 1"><circle class="cls-1" cx="89.64" cy="97.03" r="26.68" transform="translate(-42.35 91.8) rotate(-45)"/><path class="cls-2" d="M6.65,43.64a4.29,4.29,0,1,1,1.22-6A4.29,4.29,0,0,1,6.65,43.64Z"/><path class="cls-2" d="M92.82,7.87A4.29,4.29,0,1,1,94,1.93,4.28,4.28,0,0,1,92.82,7.87Z"/><path class="cls-2" d="M87.43,84.21a4.29,4.29,0,1,1,1.22-5.94A4.29,4.29,0,0,1,87.43,84.21Z"/><path class="cls-3" d="M121.48,106.73s-2,8.44.09,12.9c1.85,3.86,9.47,7,9.47,7s-7.16-2-11.76-.47-8.13,10-8.13,10,2.4-8.13.34-12.75c-1.58-3.54-9.89-7.13-9.89-7.13s8.72,2.32,12.2.54C118.35,114.49,121.48,106.73,121.48,106.73Z"/></g></g></svg>