<svg xmlns="http://www.w3.org/2000/svg" xmlns:xlink="http://www.w3.org/1999/xlink" viewBox="0 0 317.54 145.37"><defs><style>.cls-1{fill:none;}.cls-2{fill:url(#未命名漸層_55);}.cls-3{fill:url(#未命名漸層_55-2);}.cls-4{fill:url(#未命名漸層_55-3);}.cls-10,.cls-12,.cls-17,.cls-19,.cls-20,.cls-5,.cls-6,.cls-8{opacity:0.42;}.cls-5{fill:url(#未命名漸層_66);}.cls-6{fill:url(#未命名漸層_66-2);}.cls-7{fill:url(#未命名漸層_55-4);}.cls-8{fill:url(#未命名漸層_66-3);}.cls-9{fill:url(#未命名漸層_55-5);}.cls-10{fill:url(#未命名漸層_66-4);}.cls-11{fill:url(#未命名漸層_55-6);}.cls-12{fill:url(#未命名漸層_66-5);}.cls-13,.cls-15{opacity:0.64;}.cls-13{fill:url(#未命名漸層_66-6);}.cls-14{fill:url(#未命名漸層_55-7);}.cls-15{fill:url(#未命名漸層_66-7);}.cls-16{fill:url(#未命名漸層_55-8);}.cls-17{fill:url(#未命名漸層_66-8);}.cls-18{fill:url(#未命名漸層_55-9);}.cls-19{fill:url(#未命名漸層_66-9);}.cls-20{fill:url(#未命名漸層_66-10);}.cls-21{fill:#fff;}</style><linearGradient id="未命名漸層_55" x1="-1091.73" y1="73.13" x2="-810.05" y2="73.13" gradientTransform="translate(1126.94)" gradientUnits="userSpaceOnUse"><stop offset="0" stop-color="#fffbc2"/><stop offset="1" stop-color="#9ce5a3"/></linearGradient><linearGradient id="未命名漸層_55-2" x1="-1091.78" y1="72.72" x2="-810.1" y2="72.72" xlink:href="#未命名漸層_55"/><linearGradient id="未命名漸層_55-3" x1="-1091.78" y1="0.64" x2="-810.1" y2="0.64" xlink:href="#未命名漸層_55"/><linearGradient id="未命名漸層_66" x1="-3200.33" y1="-2395.26" x2="-3245.48" y2="-2333.4" gradientTransform="translate(-3790.29 608) rotate(135)" gradientUnits="userSpaceOnUse"><stop offset="0" stop-color="#c1d72c"/><stop offset="0.2" stop-color="#a9d151"/><stop offset="0.42" stop-color="#94cb71"/><stop offset="0.63" stop-color="#84c788"/><stop offset="0.83" stop-color="#7bc596"/><stop offset="1" stop-color="#78c49b"/></linearGradient><linearGradient id="未命名漸層_66-2" x1="-3086.75" y1="-2566.57" x2="-3234.42" y2="-2364.21" xlink:href="#未命名漸層_66"/><linearGradient id="未命名漸層_55-4" x1="-1091.78" y1="72.74" x2="-810.1" y2="72.74" xlink:href="#未命名漸層_55"/><linearGradient id="未命名漸層_66-3" x1="-3062.44" y1="-2548.83" x2="-3210.11" y2="-2346.47" xlink:href="#未命名漸層_66"/><linearGradient id="未命名漸層_55-5" x1="-967.03" y1="76.21" x2="-942.13" y2="76.21" xlink:href="#未命名漸層_55"/><linearGradient id="未命名漸層_66-4" x1="-4232.45" y1="76.21" x2="-4207.55" y2="76.21" gradientTransform="matrix(-1, 0, 0, 1, -4047.64, 0)" xlink:href="#未命名漸層_66"/><linearGradient id="未命名漸層_55-6" x1="-1091.78" y1="56.4" x2="-810.1" y2="56.4" xlink:href="#未命名漸層_55"/><linearGradient id="未命名漸層_66-5" x1="-4283.25" y1="56.4" x2="-4218.07" y2="56.4" gradientTransform="matrix(-1, 0, 0, 1, -4047.64, 0)" xlink:href="#未命名漸層_66"/><linearGradient id="未命名漸層_66-6" x1="-1000.67" y1="75.68" x2="-810.11" y2="75.68" gradientTransform="translate(1127.65)" xlink:href="#未命名漸層_66"/><linearGradient id="未命名漸層_55-7" x1="-1091.78" y1="75.82" x2="-810.1" y2="75.82" xlink:href="#未命名漸層_55"/><linearGradient id="未命名漸層_66-7" x1="-1000.67" y1="75.82" x2="-810.11" y2="75.82" gradientTransform="translate(1127.65)" xlink:href="#未命名漸層_66"/><linearGradient id="未命名漸層_55-8" x1="-1091.78" y1="140.41" x2="-810.1" y2="140.41" xlink:href="#未命名漸層_55"/><linearGradient id="未命名漸層_66-8" x1="-1000.67" y1="140.41" x2="-810.11" y2="140.41" gradientTransform="translate(1127.65)" xlink:href="#未命名漸層_66"/><linearGradient id="未命名漸層_55-9" x1="-1091.78" y1="139.05" x2="-810.1" y2="139.05" xlink:href="#未命名漸層_55"/><linearGradient id="未命名漸層_66-9" x1="-3059.03" y1="-2546.35" x2="-3206.7" y2="-2343.99" xlink:href="#未命名漸層_66"/><linearGradient id="未命名漸層_66-10" x1="-1000.67" y1="139.05" x2="-810.11" y2="139.05" gradientTransform="translate(1127.65)" xlink:href="#未命名漸層_66"/></defs><g id="圖層_2" data-name="圖層 2"><g id="圖層_1-2" data-name="圖層 1"><path class="cls-1" d="M46.24,84.9c-23.43.68-37.75,5-39.62,12.22s8.5,18,28.58,30a141.27,141.27,0,0,1,11-42.2Z"/><path class="cls-2" d="M47,84.87l-.73,0a141.27,141.27,0,0,0-11,42.2l.67.4a330,330,0,0,0,35.7,17.87H135a120.45,120.45,0,0,1,22-140.08c1.32-1.32,2-3.16,3.39-4.39A141.43,141.43,0,0,0,49.3,78.27H50C48.94,80.45,47.91,82.63,47,84.87Z"/><path class="cls-3" d="M163.2,135.45a78.49,78.49,0,0,1,14.26,9.92h53.06a59.38,59.38,0,0,0-6.92-6.61c-8-6.53-20.15-11-26.1-19.77-14.75-21.73,44.4-14.11,51.53-13.26,8.12,1,18.4,2.31,18.69-8.44.34-12.79-6.78-27.32-11.63-38.8-5.73-13.57-12.56-27-22.56-37.95A101,101,0,0,0,216.88,6.26q-2.82-.85-5.7-1.61A141.17,141.17,0,0,0,172.26.12C142.69,39,137.81,94.4,163.2,135.45Zm66.55-95.21c27.86,45.31-52.35,58.16-58.33,31.83.45,2,.9,4,.94,4.14h0l-.94-4.15c-1.72-7.61-.85-3.77,0,0C164.57,41.69,210,8.13,229.75,40.24Z"/><path class="cls-4" d="M167.16.33q-3.34.21-6.66.56C161.78,1.09,164.55.66,167.16.33Z"/><path class="cls-5" d="M160.46.89h0Z"/><path class="cls-6" d="M172.27.11a18.46,18.46,0,0,0-5.11.22c1.69-.1,3.4-.17,5.1-.21Z"/><path class="cls-7" d="M135,145.37h10.14c-.29-4.32.25-8.75,3.39-11,3.79-2.75,9-1.73,14.64,1.11C137.81,94.4,142.69,39,172.26.12c-1.7,0-3.41.11-5.1.21-2.61.33-5.38.76-6.66.56h-.05c-1.35,1.23-2.07,3.07-3.39,4.39A120.45,120.45,0,0,0,135,145.37Z"/><path class="cls-8" d="M135,145.37h10.14c-.29-4.32.25-8.75,3.39-11,3.79-2.75,9-1.73,14.64,1.11C137.81,94.4,142.69,39,172.26.12c-1.7,0-3.41.11-5.1.21-2.61.33-5.38.76-6.66.56h-.05c-1.35,1.23-2.07,3.07-3.39,4.39A120.45,120.45,0,0,0,135,145.37Z"/><path class="cls-9" d="M172.36,76.21Z"/><path class="cls-10" d="M172.36,76.21Z"/><path class="cls-11" d="M171.42,72.06l.94,4.15c0-.19-.49-2.15-.94-4.14,6,26.33,86.19,13.48,58.33-31.83C210,8.13,164.57,41.69,171.42,72,170.57,68.29,169.7,64.45,171.42,72.06Z"/><path class="cls-12" d="M171.42,72.06l.94,4.15c0-.19-.49-2.15-.94-4.14,6,26.33,86.19,13.48,58.33-31.83C210,8.13,164.57,41.69,171.42,72,170.57,68.29,169.7,64.45,171.42,72.06Z"/><path class="cls-13" d="M316.77,145.37h.7A141.19,141.19,0,0,0,216.49,6l.39.27A141.24,141.24,0,0,1,316.77,145.37Z"/><path class="cls-14" d="M233.53,20.54c10,11,16.83,24.38,22.56,38,4.85,11.48,12,26,11.63,38.8-.29,10.75-10.57,9.4-18.69,8.44-7.13-.85-66.28-8.47-51.53,13.26,5.95,8.75,18.07,13.24,26.1,19.77a59.38,59.38,0,0,1,6.92,6.61h86.25A141.24,141.24,0,0,0,216.88,6.26,101,101,0,0,1,233.53,20.54Z"/><path class="cls-15" d="M233.53,20.54c10,11,16.83,24.38,22.56,38,4.85,11.48,12,26,11.63,38.8-.29,10.75-10.57,9.4-18.69,8.44-7.13-.85-66.28-8.47-51.53,13.26,5.95,8.75,18.07,13.24,26.1,19.77a59.38,59.38,0,0,1,6.92,6.61h86.25A141.24,141.24,0,0,0,216.88,6.26,101,101,0,0,1,233.53,20.54Z"/><path class="cls-16" d="M170.17,145.37h7.29a78.49,78.49,0,0,0-14.26-9.92A105.59,105.59,0,0,0,170.17,145.37Z"/><path class="cls-17" d="M170.17,145.37h7.29a78.49,78.49,0,0,0-14.26-9.92A105.59,105.59,0,0,0,170.17,145.37Z"/><path class="cls-18" d="M148.56,134.34c-3.14,2.28-3.68,6.71-3.39,11h25a105.59,105.59,0,0,1-7-9.92C157.6,132.61,152.35,131.59,148.56,134.34Z"/><path class="cls-19" d="M148.56,134.34c-3.14,2.28-3.68,6.71-3.39,11h25a105.59,105.59,0,0,1-7-9.92C157.6,132.61,152.35,131.59,148.56,134.34Z"/><path class="cls-20" d="M148.56,134.34c-3.14,2.28-3.68,6.71-3.39,11h25a105.59,105.59,0,0,1-7-9.92C157.6,132.61,152.35,131.59,148.56,134.34Z"/><path class="cls-21" d="M71.57,145.37a330,330,0,0,1-35.7-17.87l-.67-.4c-20.08-12-30.45-22.76-28.58-30S22.81,85.58,46.24,84.9l.73,0c.94-2.24,2-4.42,3.05-6.6h-.73C22.18,78.68,3.44,83.84.42,95.5s11,25.58,34.9,39.24c6.23,3.57,13.13,7.12,20.55,10.63Z"/><path class="cls-21" d="M282.32,39.06s2.58,13.25,8.5,18.16c5.13,4.24,17.9,3.7,17.9,3.7s-11.43,1.77-16.89,7-5,19.43-5,19.43-1.89-13-7.81-18.23c-4.53-4-18.6-3.63-18.6-3.63S274.27,63.08,278,58.3C282.94,52.05,282.32,39.06,282.32,39.06Z"/></g></g></svg>