<svg xmlns="http://www.w3.org/2000/svg" xmlns:xlink="http://www.w3.org/1999/xlink" viewBox="0 0 311.24 327.97"><defs><style>.cls-1{fill:url(#linear-gradient);}.cls-2,.cls-8{fill:#fff;}.cls-3{fill:#fde17e;}.cls-4{fill:url(#linear-gradient-2);}.cls-5{fill:url(#linear-gradient-3);}.cls-6{fill:url(#linear-gradient-4);}.cls-7{fill:url(#linear-gradient-5);}.cls-8{opacity:0.28;}</style><linearGradient id="linear-gradient" x1="-10.73" y1="45.24" x2="340.28" y2="280.04" gradientUnits="userSpaceOnUse"><stop offset="0" stop-color="#59d977"/><stop offset="1" stop-color="#0052bb"/></linearGradient><linearGradient id="linear-gradient-2" x1="71.39" y1="46.52" x2="375.15" y2="193.96" gradientUnits="userSpaceOnUse"><stop offset="0" stop-color="#598b63"/><stop offset="1" stop-color="#0052bb"/></linearGradient><linearGradient id="linear-gradient-3" x1="6.34" y1="64.97" x2="198.24" y2="186.84" xlink:href="#linear-gradient-2"/><linearGradient id="linear-gradient-4" x1="-36.17" y1="101.75" x2="208.42" y2="257.08" xlink:href="#linear-gradient-2"/><linearGradient id="linear-gradient-5" x1="-66.77" y1="149.93" x2="177.82" y2="305.26" xlink:href="#linear-gradient-2"/></defs><g id="圖層_2" data-name="圖層 2"><g id="圖層_1-2" data-name="圖層 1"><path class="cls-1" d="M308.32,186.35A155.53,155.53,0,0,1,125.77,309.2c-4.74-.95-9.35-2.08-13.91-3.38A155.55,155.55,0,0,1,2.92,126.65,152.77,152.77,0,0,1,15.94,88a155.58,155.58,0,0,1,292.38,98.35Z"/><path class="cls-2" d="M75.25,51.24c3.12.88,6.24,2.21,9.27,3.24A51.28,51.28,0,0,0,95.61,57a14.81,14.81,0,0,0,7.19-.57c4.29-1.73,6.42-6.43,9.46-9.93,5.33-6.13,13.7-8.64,21.74-9.84s16.33-1.42,23.95-4.24c3.56-1.31,7.17-3.46,8.54-7,.56-1.42.7-3,1.15-4.41,1.61-5.31,16.27-9.13,13.19-14.23a7.3,7.3,0,0,0-3.22-2.53C170.42.72,162.21.1,154.22,0,111.27-.45,71.92,11.87,45.61,47.46c-2,2.68-3.91,5.61-4.24,8.94-1.1,10.9,9.19,6.59,13.79,2.17,2.94-2.82,5.7-6.07,9.51-7.49C68.1,49.81,71.68,50.23,75.25,51.24Z"/><path class="cls-3" d="M144.7,308.75c-4.36-.23-8.76-.47-12.94.46-2,.45-4.18,1.3-5.3,3.07-1.45,2.26-.74,5.39,1,7.48,6.38,7.93,19.46,8.16,28.64,8.21,17.88.08,35.88-2.37,52.64-8.61,6.07-2.26,51.51-25.69,42.39-34.2-1.82-1.69-4.64-1.72-7.06-1.14-8.56,2-15,10-23.65,11.28-9.6,1.46-18.49-5.55-28.17-6.39a22.79,22.79,0,0,0-14.75,3.91c-5.94,4.1-9.82,11-16.33,14.07C156.06,309.32,150.41,309.05,144.7,308.75Z"/><path class="cls-4" d="M299.5,143.81a36.51,36.51,0,0,1-25.21,26.74c-3,.77-6,1.24-8.4,3.14-4,3.08-4.5,8.76-4.67,13.73-.24,4.61-.42,9.35.76,13.78.66,2.67,1.78,5.27,2.25,8,1.36,8.58-4.38,16.51-9.82,23.32a8.24,8.24,0,0,1-3.73,3.25c-2.66,1-5.68-.83-7.16-3.25s-1.89-5.39-2.54-8.17c-3.49-14.91-14.85-26.51-25.74-37.28-2.61-2.6-5.56-5.38-9.29-5.68-3.49-.3-7.34,1.66-10.3-.18s-2.78-6.39-3.08-10.06c-.76-9-7.39-16.68-8.1-25.74-.83-9.94,6-19.23,14.55-24.32s18.64-6.86,28.47-8.58l20.06-3.37c3.07-.53,6.27-1.12,8.64-3.2a10.7,10.7,0,0,0,3.25-6.74c2.43-20.36-35.33-20.18-44.26-8.4-2.84,3.67-3.73,8.46-5.74,12.6s-6.21,8.11-10.77,7.22c-2.84-.59-5-2.84-7.34-4.44-6.51-4.38-9.82,2.55-16,3.32-3.49.47-6.92-1.78-8.58-4.92A14.84,14.84,0,0,1,166,94.34c.82-3.44,2.54-6.69,2.66-10.18s-2-7.58-5.56-7.69a9.3,9.3,0,0,1-3.91,6.21c-2.48-2.19-6.57-1.12-9.11,1s-4.44,5-7.22,6.92-7.1,2.25-8.94-.53a6.31,6.31,0,0,1-.82-4c.53-6.39,6.39-10.77,10.11-16,5-7.16,6.63-16.93,13.67-22.08,6.63-4.85,15.21-3.72,22.9-4,9.47-.35,11.13-3.14,18-8.76a197.61,197.61,0,0,1,26.51-18.28,155.45,155.45,0,0,1,73.08,75.33,55.19,55.19,0,0,1-4.38,10.47c-1.36,2.37-3.07,4.62-4.08,7.22a14,14,0,0,0,1.42,12.31c2.31,3.55,6.27,6,8.28,9.76C300.45,135.52,300.33,139.84,299.5,143.81Z"/><path class="cls-5" d="M86.48,80.16,88.05,80a29.15,29.15,0,0,1,10.11.61c2.22.53,4.71,1.67,5.16,3.91.59,2.86-2.4,5-4.17,7.3-3.88,5-2.18,12.54-5,18.26-3.44,7-11.3,7.7-16.35,12.7-4.64,4.6-4.36,11.46-7.53,16.74-3.42,5.69-7.6,6.6-11.25,1.46-4.66-6.54-5.16-11.58-1.78-18.79,2-4.34,3.6-9.25,2.37-13.88s-4.86-8-6.21-12.52c-4.72-15.56,12.07-14.86,22.1-14.2C79.19,81.78,82.82,80.74,86.48,80.16Z"/><path class="cls-6" d="M61.21,214.34c-2.66-1.66-5.33-3.25-8.05-4.91-3.14-1.89-6.39-3.85-10.06-4.68-6.33-1.47-13,.77-19.41-.29-3.78-.65-7.33-2.37-10.77-4.08-2.6-1.31-5.26-2.67-7.75-4.15a154.55,154.55,0,0,1-2.25-69.58A152.77,152.77,0,0,1,15.94,88c1.72-.76,3.55-1.42,5.33-2,5-1.71,10.88-5,16.33-4.43,10.83,1.24,4.2,12.84,1.66,19-1.6,3.91-3.26,8-2.73,12.19s3.08,7.69,4.56,11.6c3.55,9.76,0,21.89,6.21,30.24,2.37,3.19,5.86,5.32,8.41,8.28s4.26,7.51,2.07,10.83c-3.2-4.2-9.47-5.15-14.44-3.26s-8.7,6-11.48,10.54c-1.89,3-3.32,7-1.13,9.76A10.86,10.86,0,0,0,33.87,193,103,103,0,0,1,61.21,214.34Z"/><path class="cls-7" d="M113.81,254.16c-1.48,7.82,2.13,15.8,1.31,23.73s-6.1,15.45-4.38,23.2c.29,1.6.94,3.14,1.12,4.73a154.93,154.93,0,0,1-80.77-56.09v-.12c.18-4.56,1.89-9.29.35-13.61-1.24-3.32-4.37-6-4.37-9.59.05-4,4.2-6.8,8.1-7s7.7,1.54,11.3,3a102,102,0,0,0,26.1,6.68,17.25,17.25,0,0,0,6-.11c6.09-1.48,9-8.23,13.67-12.37A18.1,18.1,0,0,1,122.1,233C120.92,240.5,115.18,246.65,113.81,254.16Z"/><ellipse class="cls-8" cx="63.67" cy="132.71" rx="72.31" ry="49.52" transform="translate(-81.41 157.56) rotate(-74.09)"/><path class="cls-8" d="M120.71,219.74C116.36,235,104.34,245,93.88,242s-15.41-17.78-11.06-33.06,16.37-25.25,26.83-22.26S125.07,204.46,120.71,219.74Z"/></g></g></svg>