<svg xmlns="http://www.w3.org/2000/svg" xmlns:xlink="http://www.w3.org/1999/xlink" viewBox="0 0 650.1 211.1"><defs><style>.cls-1{fill:url(#linear-gradient);}.cls-2{fill:url(#linear-gradient-2);}.cls-3{fill:url(#linear-gradient-3);}.cls-4{fill:url(#linear-gradient-4);}.cls-5{fill:url(#linear-gradient-5);}.cls-6{fill:url(#linear-gradient-6);}.cls-7{fill:url(#linear-gradient-7);}.cls-8{fill:url(#linear-gradient-8);}.cls-9{fill:url(#linear-gradient-9);}.cls-10{fill:url(#linear-gradient-10);}.cls-11{fill:url(#linear-gradient-11);}.cls-12,.cls-13{fill:#ffe6f7;}.cls-12{opacity:0.75;}.cls-13{opacity:0.4;}.cls-14,.cls-15{fill:none;stroke-linecap:round;stroke-linejoin:round;stroke-width:2px;}.cls-14{stroke:url(#未命名漸層_13);}.cls-15{stroke:url(#未命名漸層_13-2);}</style><linearGradient id="linear-gradient" x1="695.47" y1="-205.83" x2="748.44" y2="-183.13" gradientTransform="matrix(-0.5, 0.87, 0.87, 0.5, 658.11, -409.06)" gradientUnits="userSpaceOnUse"><stop offset="0" stop-color="#39b8b8"/><stop offset="1" stop-color="#56519f"/></linearGradient><linearGradient id="linear-gradient-2" x1="-1627.27" y1="-205.99" x2="-1580.31" y2="-185.87" gradientTransform="matrix(0.5, -0.87, 0.87, 0.5, 1059.48, -1100.46)" xlink:href="#linear-gradient"/><linearGradient id="linear-gradient-3" x1="732.8" y1="-259.56" x2="806.46" y2="-207.91" gradientTransform="matrix(-0.5, 0.87, 0.87, 0.5, 658.11, -409.06)" gradientUnits="userSpaceOnUse"><stop offset="0" stop-color="#efe0ed"/><stop offset="1" stop-color="#d6bfd3"/></linearGradient><linearGradient id="linear-gradient-4" x1="689.06" y1="-208.68" x2="830.55" y2="-161.51" xlink:href="#linear-gradient"/><linearGradient id="linear-gradient-5" x1="669.53" y1="-214.88" x2="802.94" y2="-170.4" gradientTransform="matrix(-0.5, 0.87, 0.87, 0.5, 658.11, -409.06)" gradientUnits="userSpaceOnUse"><stop offset="0" stop-color="#39b8b8"/><stop offset="1" stop-color="#22457e"/></linearGradient><linearGradient id="linear-gradient-6" x1="743.17" y1="-311.54" x2="788.7" y2="-292.03" xlink:href="#linear-gradient"/><linearGradient id="linear-gradient-7" x1="725.99" y1="-285.05" x2="811.2" y2="-232.84" gradientTransform="matrix(-0.97, -0.25, -0.25, 0.97, 718.31, 565.8)" xlink:href="#linear-gradient"/><linearGradient id="linear-gradient-8" x1="794.62" y1="-241.63" x2="721.8" y2="-289.27" gradientTransform="matrix(-0.5, 0.87, 0.87, 0.5, 658.11, -409.06)" gradientUnits="userSpaceOnUse"><stop offset="0" stop-color="#3b2757"/><stop offset="1" stop-color="#7c5890"/></linearGradient><linearGradient id="linear-gradient-9" x1="777.69" y1="-252.71" x2="704.88" y2="-300.36" xlink:href="#linear-gradient-8"/><linearGradient id="linear-gradient-10" x1="749.41" y1="-199.99" x2="813.49" y2="-178.63" xlink:href="#linear-gradient"/><linearGradient id="linear-gradient-11" x1="737.71" y1="-204.01" x2="801.79" y2="-182.65" xlink:href="#linear-gradient"/><linearGradient id="未命名漸層_13" x1="386.54" y1="49.94" x2="478.2" y2="167.79" gradientUnits="userSpaceOnUse"><stop offset="0" stop-color="#39c2b8"/><stop offset="1" stop-color="#83c251"/></linearGradient><linearGradient id="未命名漸層_13-2" x1="159.18" y1="186.86" x2="184.83" y2="186.86" xlink:href="#未命名漸層_13"/></defs><g id="圖層_2" data-name="圖層 2"><g id="圖層_1-2" data-name="圖層 1"><path class="cls-1" d="M98,104.67s32.64-21.13,59.9,17.61a2.41,2.41,0,0,1-2.57,3.69,39.09,39.09,0,0,0-16-1.51,31.1,31.1,0,0,0-14.08,5.66Z"/><path class="cls-2" d="M61.35,167.85s-2.13,38.82,45,43.24a2.41,2.41,0,0,0,1.93-4.07A39,39,0,0,1,99,193.87a31.16,31.16,0,0,1-2.08-15Z"/><path class="cls-3" d="M68.86,173.14c-41-23.76-71.12-75.75-67.48-82,3.33-5.75,63.71-5.95,104.7,17.82,7.42,4.3,23.07,19.8,28.48,31l-24.67,42.54C97.84,183.22,76.27,177.45,68.86,173.14Z"/><path class="cls-4" d="M127.33,129a60.85,60.85,0,0,1,7.23,10.91l-24.67,42.54a62.3,62.3,0,0,1-13-.92Z"/><path class="cls-5" d="M118.9,143.55c2.3,2.64,7.74,8.9,8.1,9.41l-10,17.28c-3.9-.84-7-2.26-11.62-3.33Z"/><path class="cls-6" d="M12.23,116.52C3.09,103.9-.72,91.67.11,90.23c.73-1.26,13.17-3.4,28.57-2.08Z"/><circle class="cls-7" cx="48.33" cy="117.89" r="25.66" transform="translate(-78.16 133.17) rotate(-74.6)"/><path class="cls-8" d="M39.08,133.84a18.44,18.44,0,1,0-6.7-25.2A18.45,18.45,0,0,0,39.08,133.84Z"/><path class="cls-9" d="M35.52,115.92c-3.06,5.28-2.8,10.4-.66,14.55a18.43,18.43,0,1,1,30.82-6.39C65.69,110,44.35,100.7,35.52,115.92Z"/><path class="cls-10" d="M133.29,167.39l0-.07a4.52,4.52,0,0,0-1.28-6l-28.49-20.31-18-6.93a4.81,4.81,0,0,0-5.89,2.08l0,.07a4.81,4.81,0,0,0,1.18,6.19l15.48,12.19,31.13,14.57A4.53,4.53,0,0,0,133.29,167.39Z"/><path class="cls-11" d="M80.84,142.46a4.81,4.81,0,0,1-1.18-6.19l0-.07s0,0,0,0l53.64,31.1,0,0,0,.07a4.53,4.53,0,0,1-5.84,1.83L96.32,154.65Z"/><path class="cls-12" d="M96.49,175.19c2.83-1.77,7.2-12.08,7.2-12.08-28.08,6-60.61-18.37-61.26-17.25S57,164,72.66,170.14C84.79,174.91,93.69,177,96.49,175.19Z"/><path class="cls-13" d="M105,104.73s12.27-5.76,24.39-2.13c11.8,3.54,20.33,13.56,20.33,13.56a99.92,99.92,0,0,0-22-9.37A57.81,57.81,0,0,0,105,104.73Z"/><path class="cls-13" d="M103.18,147.26c3.41,2,6.51,3,6.91,2.34s-2-2.85-5.47-4.83-6.51-3-6.91-2.34S99.76,145.28,103.18,147.26Z"/><path class="cls-13" d="M91.8,140.66c1.46.85,2.89,1.1,3.2.57s-.62-1.65-2.08-2.5-2.9-1.1-3.21-.57S90.34,139.81,91.8,140.66Z"/><path class="cls-13" d="M5.21,102.28s6.08,11.6,7.24,11.09S26.65,89.7,26.65,89.7s-11.69,16.76-14,17.19S5.21,102.28,5.21,102.28Z"/><path class="cls-14" d="M649.1,1c-37.54,58.84-87.54,107.84-149.54,143.84-40,23-80,39-126,49-59,13-116,12-173.72,2.58"/><circle class="cls-15" cx="172.01" cy="186.86" r="11.82"/></g></g></svg>