<svg xmlns="http://www.w3.org/2000/svg" xmlns:xlink="http://www.w3.org/1999/xlink" viewBox="0 0 352.71 221.97"><defs><style>.cls-1{mask:url(#mask);}.cls-2,.cls-4{mix-blend-mode:multiply;}.cls-2{fill:url(#radial-gradient);}.cls-3{mask:url(#mask-2);}.cls-4{fill:url(#radial-gradient-2);}.cls-5{fill:none;}.cls-6{clip-path:url(#clip-path);}.cls-7{fill:url(#未命名漸層_55);}.cls-11,.cls-8,.cls-9{opacity:0.42;}.cls-8{fill:url(#未命名漸層_66);}.cls-9{fill:url(#未命名漸層_66-2);}.cls-10{opacity:0.64;fill:url(#未命名漸層_66-3);}.cls-11{fill:url(#未命名漸層_66-4);}.cls-12{fill:#fff;}.cls-13{fill:#150301;}.cls-14{fill:#140304;}.cls-15{fill:#403a39;}.cls-16{fill:#2b1e1d;}.cls-17{mask:url(#mask-3);}.cls-18{fill:url(#radial-gradient-3);}.cls-19{mask:url(#mask-4);}.cls-20{fill:url(#radial-gradient-4);}.cls-21{fill:#ccc;}.cls-22{filter:url(#luminosity-noclip-4);}.cls-23{filter:url(#luminosity-noclip-3);}.cls-24{filter:url(#luminosity-noclip-2);}.cls-25{filter:url(#luminosity-noclip);}</style><filter id="luminosity-noclip" x="189.82" y="-6361.49" width="11.31" height="32766" filterUnits="userSpaceOnUse" color-interpolation-filters="sRGB"><feFlood flood-color="#fff" result="bg"/><feBlend in="SourceGraphic" in2="bg"/></filter><mask id="mask" x="189.82" y="-6361.49" width="11.31" height="32766" maskUnits="userSpaceOnUse"><g class="cls-25"/></mask><radialGradient id="radial-gradient" cx="-2535.34" cy="-713.49" r="5.65" gradientTransform="translate(2828.54 177.68) rotate(-14.42)" gradientUnits="userSpaceOnUse"><stop offset="0.01" stop-color="#fff"/><stop offset="0.1" stop-color="#f9f9f9"/><stop offset="0.23" stop-color="#eaeaea"/><stop offset="0.36" stop-color="#d0d0d0"/><stop offset="0.51" stop-color="#ababab"/><stop offset="0.67" stop-color="#7c7c7c"/><stop offset="0.83" stop-color="#434343"/><stop offset="1"/></radialGradient><filter id="luminosity-noclip-2" x="161.6" y="-6361.49" width="11.31" height="32766" filterUnits="userSpaceOnUse" color-interpolation-filters="sRGB"><feFlood flood-color="#fff" result="bg"/><feBlend in="SourceGraphic" in2="bg"/></filter><mask id="mask-2" x="161.6" y="-6361.49" width="11.31" height="32766" maskUnits="userSpaceOnUse"><g class="cls-24"/></mask><radialGradient id="radial-gradient-2" cx="-2562.43" cy="-721.46" r="5.65" xlink:href="#radial-gradient"/><clipPath id="clip-path" transform="translate(-19.57 -13.71)"><rect class="cls-5" width="341.82" height="159.08"/></clipPath><linearGradient id="未命名漸層_55" x1="-1072.21" y1="112.63" x2="-790.53" y2="112.63" gradientTransform="translate(1126.94)" gradientUnits="userSpaceOnUse"><stop offset="0" stop-color="#fffbc2"/><stop offset="1" stop-color="#9ce5a3"/></linearGradient><linearGradient id="未命名漸層_66" x1="-805.33" y1="-789.96" x2="-953" y2="-587.6" gradientTransform="translate(-924 268.31) rotate(135)" gradientUnits="userSpaceOnUse"><stop offset="0" stop-color="#c1d72c"/><stop offset="0.2" stop-color="#a9d151"/><stop offset="0.42" stop-color="#94cb71"/><stop offset="0.63" stop-color="#84c788"/><stop offset="0.83" stop-color="#7bc596"/><stop offset="1" stop-color="#78c49b"/></linearGradient><linearGradient id="未命名漸層_66-2" x1="-1295.83" y1="70.11" x2="-1230.64" y2="70.11" gradientTransform="matrix(-1, 0, 0, 1, -1040.64, 0)" xlink:href="#未命名漸層_66"/><linearGradient id="未命名漸層_66-3" x1="-981.09" y1="115.58" x2="-790.54" y2="115.58" gradientTransform="translate(1127.65)" xlink:href="#未命名漸層_66"/><linearGradient id="未命名漸層_66-4" x1="-981.09" y1="175.41" x2="-790.54" y2="175.41" gradientTransform="translate(1127.65)" xlink:href="#未命名漸層_66"/><filter id="luminosity-noclip-3" x="189.82" y="112.25" width="11.31" height="11.31" filterUnits="userSpaceOnUse" color-interpolation-filters="sRGB"><feFlood flood-color="#fff" result="bg"/><feBlend in="SourceGraphic" in2="bg"/></filter><mask id="mask-3" x="170.24" y="98.54" width="11.31" height="11.31" maskUnits="userSpaceOnUse"><g class="cls-23"><g transform="translate(-19.57 -13.71)"><g class="cls-1"><path class="cls-2" d="M201,116.49a5.66,5.66,0,1,1-6.89-4.06A5.65,5.65,0,0,1,201,116.49Z"/></g></g></g></mask><radialGradient id="radial-gradient-3" cx="-2535.34" cy="-713.49" r="5.65" gradientTransform="translate(2828.54 177.68) rotate(-14.42)" gradientUnits="userSpaceOnUse"><stop offset="0.01" stop-color="#ebaec9"/><stop offset="0.42" stop-color="#ecb4cd"/><stop offset="0.95" stop-color="#f1c3d8"/><stop offset="1" stop-color="#f1c5d9"/></radialGradient><filter id="luminosity-noclip-4" x="161.6" y="111.27" width="11.31" height="11.31" filterUnits="userSpaceOnUse" color-interpolation-filters="sRGB"><feFlood flood-color="#fff" result="bg"/><feBlend in="SourceGraphic" in2="bg"/></filter><mask id="mask-4" x="142.02" y="97.56" width="11.31" height="11.31" maskUnits="userSpaceOnUse"><g class="cls-22"><g transform="translate(-19.57 -13.71)"><g class="cls-3"><path class="cls-4" d="M172.73,115.51a5.66,5.66,0,1,1-6.89-4.06A5.65,5.65,0,0,1,172.73,115.51Z"/></g></g></g></mask><radialGradient id="radial-gradient-4" cx="-2562.43" cy="-721.46" r="5.65" xlink:href="#radial-gradient-3"/></defs><g id="圖層_2" data-name="圖層 2"><g id="圖層_1-2" data-name="圖層 1"><g class="cls-6"><path class="cls-7" d="M58.61,119.44a138.8,138.8,0,0,0-3.88,21.77c27.77,16.4,73.6,35,131.07,50s106.58,21,138.82,20.19a140.81,140.81,0,0,0,11.08-42.63c.27-2.41.42-4.82.55-7.24A141.19,141.19,0,0,0,68.87,92c-1.07,2.18-2.1,4.36-3.05,6.6A138.71,138.71,0,0,0,58.61,119.44Z" transform="translate(-19.57 -13.71)"/><path class="cls-8" d="M176.63,189.27a120.4,120.4,0,0,1,0-170.27c1.33-1.32,2.05-3.17,3.41-4.4,2.28.37,9.58-1.33,11.8-.78-34.44,45.3-35.4,113,5.95,154.3a113.93,113.93,0,0,0,36.32,24.55,101.12,101.12,0,0,1-27.26,18.62A119.15,119.15,0,0,1,176.63,189.27Z" transform="translate(-19.57 -13.71)"/><path class="cls-9" d="M191,85.77c6,26.35,86.2,13.5,58.33-31.82-19.74-32.11-65.2,1.46-58.33,31.82C194.29,100.36,187.6,70.75,191,85.77Z" transform="translate(-19.57 -13.71)"/><path class="cls-5" d="M325.34,211.4c23.82-.63,38.41-5,40.32-12.28s-8.74-18.18-29.24-30.35a142.18,142.18,0,0,1-11.08,42.63Z" transform="translate(-19.57 -13.71)"/><path class="cls-5" d="M336.84,163.59c0,.7-.09,1.41-.14,2.12C336.75,165,336.8,164.29,336.84,163.59Z" transform="translate(-19.57 -13.71)"/><path class="cls-10" d="M325.33,211.4h0a142.18,142.18,0,0,0,11.08-42.63h0c.11-1,.2-2,.28-3.06.05-.71.1-1.42.14-2.12,0-.36.05-.72.07-1.08A141.2,141.2,0,0,0,236.07,19.7a102.21,102.21,0,0,1,17,14.55c10,11,16.82,24.39,22.55,38,4.85,11.48,12,26,11.63,38.8-.28,10.75-10.57,9.41-18.68,8.44-7.14-.85-66.29-8.47-51.54,13.26,6,8.75,18.08,13.25,26.11,19.77a58,58,0,0,1,20.28,33c1.1,5.08,3,16.78-1.48,21.23C286.91,210.36,308.44,211.82,325.33,211.4Z" transform="translate(-19.57 -13.71)"/><path class="cls-11" d="M247.24,204.39c-3.3-2.34-6.36-5.22-8.9-7.39-8.87-7.58-17.18-15.78-25.8-23.63-7.09-6.44-32.68-33.8-44.4-25.32-5.25,3.8-3.25,13.61-2.26,18.83a136.61,136.61,0,0,0,5.7,20.29q7.33,2.06,14.94,4C208.08,196.82,228.48,201.18,247.24,204.39Z" transform="translate(-19.57 -13.71)"/><path class="cls-12" d="M336.91,162.51c0,.36-.05.72-.07,1.08C336.86,163.23,336.89,162.87,336.91,162.51Z" transform="translate(-19.57 -13.71)"/><path class="cls-12" d="M262,206.72q-7.19-1-14.74-2.33c2.85,2,5.87,3.63,8.89,4A6.57,6.57,0,0,0,262,206.72Z" transform="translate(-19.57 -13.71)"/><path class="cls-12" d="M337,161.53l-.06,1c0,.36-.05.72-.07,1.08,0,.7-.09,1.41-.14,2.12-.08,1-.18,2-.28,3.06,20.5,12.17,31.12,23.09,29.24,30.35s-16.5,11.65-40.32,12.28q-1.45,3.36-3.08,6.61h0c27.46-.32,46.5-5.48,49.58-17.27S360.81,175.18,337,161.53Z" transform="translate(-19.57 -13.71)"/><path class="cls-12" d="M55.45,141.21C34.92,129,24.3,118.13,26.19,110.83S42.67,99.2,66.54,98.58c.95-2.24,2-4.42,3-6.6C42.09,92.29,23,97.45,20,109.21s11,25.59,34.9,39.25c29.62,16.93,74.18,33.66,119.44,46.12-.94-2.45-1.87-4.92-2.75-7.41C121.1,173,80.76,156.17,55.45,141.21Z" transform="translate(-19.57 -13.71)"/><path class="cls-12" d="M325.33,211.4c-16.89.42-38.42-1-63.35-4.68a6.57,6.57,0,0,1-5.85,1.69c-3-.39-6-2-8.89-4-18.76-3.21-39.16-7.57-60.72-13.18q-7.62-2-14.94-4c.88,2.49,1.81,5,2.75,7.41q5.28,1.46,10.57,2.84c48.8,12.7,100.63,21,137.36,20.59q1.62-3.25,3.08-6.61Z" transform="translate(-19.57 -13.71)"/><path class="cls-12" d="M336.42,168.77c.1-1,.2-2,.28-3.06-.08,1-.17,2-.28,3.06Z" transform="translate(-19.57 -13.71)"/><path class="cls-13" d="M171.93,187.83l-.36,0c-4.89-.33-11.1.8-14.38-3.61a3.09,3.09,0,0,0-.6-.7,1.94,1.94,0,0,0-.86-.28c-.54-.1-1.23-.12-1.48.37s-.06,1.06-.5,1.16c-.25,0-.46-.16-.66-.32a1.38,1.38,0,0,0-1.81-.1,1.28,1.28,0,0,0-.17,1.32,3.72,3.72,0,0,0,.82,1.12c-.54.07-1.09-.06-1.64,0a1.34,1.34,0,0,0-1.27.85,1.17,1.17,0,0,0,.63,1.2,3.3,3.3,0,0,0,1.39.33,2.43,2.43,0,0,0-.95.54c-2.06,2.1,36.89,14.8,26.63.11C175.7,188.31,173.74,188,171.93,187.83Z" transform="translate(-19.57 -13.71)"/><path class="cls-14" d="M204.27,199.11c.08-5-.41-9.77-4.53-12.29-4.91-3-11.65-4.25-17.06-5.71-7.63-2.06-14.89,20.17-15.29,26.19l0,0c0,.18,0,.36,0,.53,0,.42,0,.83,0,1.24a12.89,12.89,0,0,0,.15,1.63c0,.26,0,.53.05.79a47.47,47.47,0,0,0,1.67,9.41,64.55,64.55,0,0,0,2.24,6.72c.66,1.65,1.71,3.05,2.44,4.66a12.66,12.66,0,0,0-1.79-.83.93.93,0,0,0-.57,0,1.06,1.06,0,0,0-.48.48,4.61,4.61,0,0,0-.68,1.65c-.05.31,4.92,2.14,5.45,2.16.22-1.31.07-2.68.36-4a11.64,11.64,0,0,1,5.09-7.24,19,19,0,0,0,8.12-.17c1.85,3.25,6.62,4.92,10,4.37a16.15,16.15,0,0,0,5.58-2.25,28.64,28.64,0,0,0,4.26-3.62c.12-.11.27-.23.42-.18s.21.19.27.33c.42.89,1,1.89,1.89,2a.49.49,0,0,0,.34,0,.78.78,0,0,0,.27-.43l.77-2.35a.93.93,0,0,0,.06-.52.8.8,0,0,0-.35-.42L209,218.3c-.87-.65-3.31,4.44-4.19.67a19.83,19.83,0,0,0-1.11-3.34c1-3.24.53-7,.43-10.53C204.07,203.59,204.23,201.4,204.27,199.11Z" transform="translate(-19.57 -13.71)"/><path class="cls-13" d="M224,56.5s2.54-21.24,16.43-20.67c0,0,16.28,1.32,16.62,12.25,0,0,6.16,17.87-10,21.85l-12.69,2.73Z" transform="translate(-19.57 -13.71)"/><path class="cls-13" d="M165,66s8.17-31.41-20.83-28.38c0,0-9.3.84-10.76,10.26,0,0-8.85,20.36,22,27.45Z" transform="translate(-19.57 -13.71)"/><path class="cls-15" d="M150.85,45.63s4.5,3.58,7.85,11.5l-12.22,8.95s-7.22-5.53-6.66-10.07S142.19,43.31,150.85,45.63Z" transform="translate(-19.57 -13.71)"/><path class="cls-15" d="M229.56,52.92s5.56-10.5,12.93-7.68,5.66,19.67-10.1,17.52Z" transform="translate(-19.57 -13.71)"/><path class="cls-13" d="M130.8,165.5c-28.85-27.83-16.44-63,15.14-106.95,7.79-10.84,71.52-32.22,96.85.73,14.07,18.29,25.25,38.83,26.67,49.1,2,14.38,5.42,40.74-13.54,56.92C253.78,167.12,190.21,220.14,130.8,165.5Z" transform="translate(-19.57 -13.71)"/><path class="cls-12" d="M225.06,96c1.08,4.88-.89,9.45-4.37,10.21s-7.2-2.56-8.26-7.42.88-9.44,4.37-10.22S224,91.13,225.06,96Z" transform="translate(-19.57 -13.71)"/><path class="cls-12" d="M159.46,100.13c-1.59,4.73-5.63,7.63-9,6.49s-4.84-5.9-3.24-10.63,5.63-7.63,9-6.49S161.06,95.41,159.46,100.13Z" transform="translate(-19.57 -13.71)"/><path class="cls-12" d="M182.38,100.44s28.54-.45,28.23,21.15c0,0-4.8,18.46-28.41,16.54,0,0-27.86-5-23.68-23.1C158.52,115,164.43,100.4,182.38,100.44Z" transform="translate(-19.57 -13.71)"/><path class="cls-13" d="M174.28,107.27c-1.28.71-2.58,2.53-2.23,3.7s4.78,5.75,7.28,5.82,9.87-3.4,11-4.34.73-5.39-.42-5.71-6.15,1.48-10,1C177.09,107.35,174.77,107,174.28,107.27Z" transform="translate(-19.57 -13.71)"/><path class="cls-16" d="M174.54,107.88c-1.12.57-2.27,2-1.95,3s4.4,5.06,6.61,5.12,8.26-2.64,9.22-3.38S189,108,188,108c-1.43.07-5.1.77-8.47.35C177.1,108.05,175,107.66,174.54,107.88Z" transform="translate(-19.57 -13.71)"/><path class="cls-15" d="M174.8,108.5c-1,.42-2,1.51-1.68,2.21s4,4.37,5.94,4.43,6.66-1.88,7.49-2.43.49-3.75-.35-3.45c-1.71.61-4,0-7-.27C177.1,108.76,175.17,108.34,174.8,108.5Z" transform="translate(-19.57 -13.71)"/><path class="cls-13" d="M178,123.6c-.15,3.28,1.8,6.51,1.39,9.8-.09.72-.22,1.63.39,2a1.61,1.61,0,0,0,.85.19c1.69.09,3.53-.27,3.88-2.22.49-2.69.93-10.74-2.09-12.14a5.64,5.64,0,0,0-2.05-.37,2.9,2.9,0,0,0-1.14.11,2.32,2.32,0,0,0-1.17,1.9C178.05,123.13,178,123.37,178,123.6Z" transform="translate(-19.57 -13.71)"/><path class="cls-13" d="M219.11,95.35a6.36,6.36,0,0,0-.66.19l-.14.06,0,0-.25.13-.22.15c-.16.09.17-.15,0,0s-.25.24-.37.36l-.17.21c-.11.13.13-.18,0,.06l-.34.48c-.26.37-.52.75-.8,1.12l-.89-1.55a30.58,30.58,0,0,1,3.17.61c.43.1.86.19,1.3.26.06,0,.37,0,.16,0l.43,0,.9,0a1,1,0,0,1,0,2.06,16.31,16.31,0,0,1-3.18-.42l-1.29-.3-.77-.16-.4-.07-.21,0-.11,0a1.08,1.08,0,0,1-.89-.51,1,1,0,0,1,0-1c.58-.77,1.07-1.62,1.72-2.33a4.82,4.82,0,0,1,2.52-1.39,1.05,1.05,0,0,1,1.27.73,1,1,0,0,1-.72,1.26Z" transform="translate(-19.57 -13.71)"/><path class="cls-12" d="M194.28,192.09c-2.1,1.91-10.81,7-14.78,4.58a27.35,27.35,0,0,1-4.74-4c.57,2.26,1,5.74,5.64,8.47,1.39.82,3.29.65,9.61-3.26C191.71,196.68,194.28,192.09,194.28,192.09Z" transform="translate(-19.57 -13.71)"/><path class="cls-13" d="M201.15,206.82c-.81-8.07,11-4.21,6.18,2.24-1.25,1.69-4.78,2-6,.1" transform="translate(-19.57 -13.71)"/><g class="cls-17"><path class="cls-18" d="M201,116.49a5.66,5.66,0,1,1-6.89-4.06A5.65,5.65,0,0,1,201,116.49Z" transform="translate(-19.57 -13.71)"/></g><g class="cls-19"><path class="cls-20" d="M172.73,115.51a5.66,5.66,0,1,1-6.89-4.06A5.65,5.65,0,0,1,172.73,115.51Z" transform="translate(-19.57 -13.71)"/></g><path d="M196,191c3.35-1.71,5.74-4.87,8.06-7.74,1.83-2.26,4.06-6.32,3.69-9.3-.09-.77-.38-1.68.17-2.23s1.64-.2,2.38.25a1.5,1.5,0,0,1,.85-2.17,1.32,1.32,0,0,1,1.47,1.66.92.92,0,0,1,1.32-.57c1.1.58.21,1.38.32,2.1s-.1.44.49,1.14c.42.49,1.19.39,1.4,1.19.36,1.34-.81,1.38-1.6,1.85s-1.25,2.52-1.6,3.47c-2.09,5.61-4,10.44-8.4,14.63-.65.62-1.34,1.59-.81,2.31" transform="translate(-19.57 -13.71)"/><path class="cls-21" d="M196,191a18.18,18.18,0,0,0,5.15-4.09c.76-.8,1.47-1.65,2.16-2.5a27.36,27.36,0,0,0,2-2.63,19.6,19.6,0,0,0,1.61-2.91,12.24,12.24,0,0,0,1-3.2,6.89,6.89,0,0,0,0-1.7,6.27,6.27,0,0,1-.13-1.57.83.83,0,0,1,.92-.75,3.3,3.3,0,0,1,1.42.53.23.23,0,0,0,.32-.32,1.27,1.27,0,0,1-.07-1.08,1.15,1.15,0,0,1,.76-.73,1,1,0,0,1,1,.36.93.93,0,0,1,.24,1l.47.13a.6.6,0,0,1,.53-.45.8.8,0,0,1,.38,0,1.16,1.16,0,0,1,.34.24.45.45,0,0,1,.14.31,1.23,1.23,0,0,1-.08.43c0,.17-.1.34-.14.54a1.91,1.91,0,0,0,0,.59l0,.25a.92.92,0,0,0,0,.15.83.83,0,0,0,.08.22c.14.18.25.28.36.42a1.46,1.46,0,0,0,.47.38c.17.1.34.16.48.24a.79.79,0,0,1,.48.64.77.77,0,0,1-.16.77,2.82,2.82,0,0,1-.83.46,3.27,3.27,0,0,0-.5.24,1.34,1.34,0,0,0-.45.4,6.11,6.11,0,0,0-.88,2l-.31,1c-.1.32-.23.65-.35,1l-.74,2a40.13,40.13,0,0,1-3.64,7.52,24.48,24.48,0,0,1-2.52,3.33c-.45.53-1,1-1.43,1.53a3.1,3.1,0,0,0-.53.91,1.12,1.12,0,0,0,.13,1,1.1,1.1,0,0,1-.1-1,3,3,0,0,1,.55-.88c.46-.51,1-1,1.48-1.49a24.54,24.54,0,0,0,2.63-3.28,40.64,40.64,0,0,0,3.8-7.5c.26-.65.52-1.31.77-2,.12-.33.25-.65.36-1l.31-1a6,6,0,0,1,.82-1.83.91.91,0,0,1,.33-.29,4.51,4.51,0,0,1,.44-.22,3,3,0,0,0,1-.55,1.14,1.14,0,0,0,.31-.57,1.75,1.75,0,0,0,0-.61,1.33,1.33,0,0,0-.24-.58,1.45,1.45,0,0,0-.48-.39,2.17,2.17,0,0,1-.81-.51c-.1-.13-.25-.28-.32-.38s0-.25,0-.41a1.15,1.15,0,0,1,0-.45c0-.15.08-.3.13-.48a1.73,1.73,0,0,0,.1-.59.91.91,0,0,0-.27-.63,1.82,1.82,0,0,0-.51-.36,1.15,1.15,0,0,0-.66-.06,1.18,1.18,0,0,0-.59.27,1,1,0,0,0-.34.59.25.25,0,0,0,.47.14h0a1.23,1.23,0,0,0,.05-.8,1.58,1.58,0,0,0-.38-.68,1.49,1.49,0,0,0-1.43-.5,1.6,1.6,0,0,0-1.09,1,1.67,1.67,0,0,0,.12,1.49l.32-.32a3.69,3.69,0,0,0-1.65-.6,1.37,1.37,0,0,0-.92.29,1.35,1.35,0,0,0-.47.85,6.49,6.49,0,0,0,.15,1.69,7.05,7.05,0,0,1,0,1.59,16,16,0,0,1-2.44,6,31.07,31.07,0,0,1-2,2.64c-.69.86-1.37,1.72-2.09,2.54A18.28,18.28,0,0,1,196,191Z" transform="translate(-19.57 -13.71)"/><path class="cls-13" d="M149.55,97.1a4.42,4.42,0,1,0,3.79-4.94A4.43,4.43,0,0,0,149.55,97.1Z" transform="translate(-19.57 -13.71)"/><path class="cls-12" d="M151.74,96.21a1.51,1.51,0,1,0,1.3-1.69A1.51,1.51,0,0,0,151.74,96.21Z" transform="translate(-19.57 -13.71)"/></g><path class="cls-13" d="M156.48,154.36h-1.09c-3.09,0-6.31.44-8.58,2.75-1.91,1.95-1.21,5,0,7.27a6.34,6.34,0,0,0,3.93,3.28,10.15,10.15,0,0,0,2.13.24c2.83.11,8.21,0,9.46-3.2a5.66,5.66,0,0,0,.27-2.49,2.37,2.37,0,0,1,.12-1.27c.7-1.36,2.63-.64,3.7-1.13s1.78-2.16.57-3a2.35,2.35,0,0,0-.81-.31C162.91,155.72,159.9,154.37,156.48,154.36Z" transform="translate(-19.57 -13.71)"/><path class="cls-12" d="M156.48,154.36a29.38,29.38,0,0,0-3.64.16,11.74,11.74,0,0,0-3.5,1,7.27,7.27,0,0,0-2.78,2.2A4.51,4.51,0,0,0,146,161a9.75,9.75,0,0,0,1.24,3.28,6.39,6.39,0,0,0,2.4,2.36,4.85,4.85,0,0,0,1.55.54,13.81,13.81,0,0,0,1.74.13,26.46,26.46,0,0,0,3.57-.12,11,11,0,0,0,3.35-.82c.13-.05.24-.13.36-.19a3.1,3.1,0,0,0,.36-.21l.33-.23.29-.27a3.3,3.3,0,0,0,.8-1.33,6,6,0,0,0,.18-1.66c0-.28,0-.59,0-.95a2.37,2.37,0,0,1,.1-.56,1.88,1.88,0,0,1,.29-.52,2,2,0,0,1,.93-.64,4.66,4.66,0,0,1,1-.15,7.23,7.23,0,0,0,1.73-.11,1.89,1.89,0,0,0,1.09-1.09,1.21,1.21,0,0,0-.3-1.43,1.87,1.87,0,0,0-.75-.36l-.88-.25-1.75-.56c-1.16-.37-2.31-.76-3.5-1A16.25,16.25,0,0,0,156.48,154.36Zm0,0a26.23,26.23,0,0,1,7.16,1.37c.58.17,1.17.33,1.76.47l.89.21a2.13,2.13,0,0,1,.9.37,1.52,1.52,0,0,1,.57.85,1.77,1.77,0,0,1,0,1,2.39,2.39,0,0,1-1.33,1.49,7.78,7.78,0,0,1-1.89.26,1.69,1.69,0,0,0-1.32.57,1,1,0,0,0-.14.29,1.11,1.11,0,0,0,0,.33c0,.25,0,.56.07.88a6,6,0,0,1-.13,2,4.26,4.26,0,0,1-1,1.8l-.37.37-.41.3a3.83,3.83,0,0,1-.42.28c-.15.07-.29.17-.44.23a11.76,11.76,0,0,1-3.71,1,25.85,25.85,0,0,1-3.73.08,12.78,12.78,0,0,1-1.9-.2,5.57,5.57,0,0,1-1.85-.72,7.06,7.06,0,0,1-2.61-2.84,10.33,10.33,0,0,1-1.11-3.6,5,5,0,0,1,.89-3.62,7.56,7.56,0,0,1,3-2.15,12.59,12.59,0,0,1,3.56-.85A29.62,29.62,0,0,1,156.48,154.36Z" transform="translate(-19.57 -13.71)"/><path class="cls-13" d="M240.07,154.36h1.09c3.09,0,6.32.44,8.59,2.75,1.91,1.95,1.2,5,0,7.27a6.4,6.4,0,0,1-3.93,3.28,10.25,10.25,0,0,1-2.14.24c-2.83.11-8.2,0-9.46-3.2a5.66,5.66,0,0,1-.27-2.49,2.37,2.37,0,0,0-.12-1.27c-.7-1.36-2.62-.64-3.69-1.13s-1.79-2.16-.58-3a2.4,2.4,0,0,1,.82-.31C233.65,155.72,236.66,154.37,240.07,154.36Z" transform="translate(-19.57 -13.71)"/><path class="cls-12" d="M240.07,154.36a29.62,29.62,0,0,1,3.65.12,12.43,12.43,0,0,1,3.56.85,7.67,7.67,0,0,1,3,2.15,5,5,0,0,1,.88,3.62,10.32,10.32,0,0,1-1.1,3.6,7.2,7.2,0,0,1-2.61,2.84,5.71,5.71,0,0,1-1.86.72,12.78,12.78,0,0,1-1.9.2,25.88,25.88,0,0,1-3.73-.08,11.63,11.63,0,0,1-3.7-1,4.53,4.53,0,0,1-.44-.23,4,4,0,0,1-.43-.28l-.4-.3-.37-.37a4.39,4.39,0,0,1-1-1.8,6.32,6.32,0,0,1-.13-2c0-.32.07-.63.07-.88a1.11,1.11,0,0,0,0-.33.93.93,0,0,0-.13-.29,1.73,1.73,0,0,0-1.33-.57,7.77,7.77,0,0,1-1.88-.26,2.38,2.38,0,0,1-1.34-1.49,2,2,0,0,1-.05-1,1.58,1.58,0,0,1,.57-.85,2.18,2.18,0,0,1,.9-.37c.3-.07.6-.13.89-.21.59-.14,1.18-.3,1.76-.47A26.23,26.23,0,0,1,240.07,154.36Zm0,0a16.25,16.25,0,0,0-3.61.48c-1.18.29-2.34.68-3.5,1l-1.74.56-.88.25a1.75,1.75,0,0,0-.75.36,1.21,1.21,0,0,0-.31,1.43,1.88,1.88,0,0,0,1.1,1.09,7.23,7.23,0,0,0,1.73.11,4.57,4.57,0,0,1,1,.15,2,2,0,0,1,.94.64,2.16,2.16,0,0,1,.28.52,2,2,0,0,1,.1.56,9.47,9.47,0,0,1,0,.95,5.6,5.6,0,0,0,.19,1.66,3.19,3.19,0,0,0,.8,1.33l.29.27.33.23a3,3,0,0,0,.35.21c.12.06.24.14.37.19a10.83,10.83,0,0,0,3.35.82,26.31,26.31,0,0,0,3.56.12,13.67,13.67,0,0,0,1.74-.13,4.82,4.82,0,0,0,1.56-.54,6.37,6.37,0,0,0,2.39-2.36,10,10,0,0,0,1.25-3.28,4.56,4.56,0,0,0-.6-3.35,7.31,7.31,0,0,0-2.77-2.2,11.74,11.74,0,0,0-3.5-1A29.63,29.63,0,0,0,240.07,154.36Z" transform="translate(-19.57 -13.71)"/></g></g></svg>