<svg xmlns="http://www.w3.org/2000/svg" viewBox="0 0 342.29 616.6"><defs><style>.cls-1{fill:#fff;}.cls-2{fill:#ffe6f7;}</style></defs><g id="圖層_2" data-name="圖層 2"><g id="圖層_1-2" data-name="圖層 1"><path class="cls-1" d="M180.18,455.68A6.67,6.67,0,1,1,178,446.5,6.67,6.67,0,0,1,180.18,455.68Z"/><path class="cls-1" d="M11.83,573.48a6.4,6.4,0,1,1-2.06-8.81A6.39,6.39,0,0,1,11.83,573.48Z"/><path class="cls-1" d="M341.32,300.57a6.4,6.4,0,1,1-2.05-8.81A6.38,6.38,0,0,1,341.32,300.57Z"/><path class="cls-1" d="M233,413.15a6.75,6.75,0,1,1-7.35-6.09A6.76,6.76,0,0,1,233,413.15Z"/><path class="cls-1" d="M159.65,609.21a6.75,6.75,0,1,1-7.35-6.09A6.75,6.75,0,0,1,159.65,609.21Z"/><path class="cls-1" d="M252.45,483.32a6.75,6.75,0,1,1-7.36-6.09A6.75,6.75,0,0,1,252.45,483.32Z"/><path class="cls-2" d="M298.31,306.23s2.59,13.26,8.51,18.16c5.13,4.24,17.9,3.7,17.9,3.7s-11.44,1.77-16.9,7-5,19.43-5,19.43-1.89-13-7.82-18.22c-4.53-4-18.59-3.64-18.59-3.64s13.82-2.38,17.58-7.16C298.94,319.22,298.31,306.23,298.31,306.23Z"/><path class="cls-1" d="M55.72,408.48s4,20.72,13.3,28.4c8,6.63,28,5.78,28,5.78s-17.88,2.77-26.42,10.91S62.83,484,62.83,484s-3-20.4-12.22-28.5c-7.09-6.2-29.08-5.69-29.08-5.69s21.61-3.72,27.49-11.2C56.7,428.79,55.72,408.48,55.72,408.48Z"/><path class="cls-1" d="M94.77,0S82.84,17.42,83.88,29.41c.89,10.35,15.51,24,15.51,24S84.87,42.61,73.08,42.24,46,58,46,58,58.44,41.6,57.72,29.32c-.56-9.4-16.35-24.71-16.35-24.71S59.18,17.4,68.63,16.34C81,15,94.77,0,94.77,0Z"/></g></g></svg>