<svg xmlns="http://www.w3.org/2000/svg" xmlns:xlink="http://www.w3.org/1999/xlink" viewBox="0 0 173.72 173.72"><defs><style>.cls-1{fill:url(#未命名漸層_40);}.cls-2{fill:url(#linear-gradient);}.cls-3{fill:url(#linear-gradient-2);}.cls-4{fill:url(#linear-gradient-3);}.cls-5{fill:url(#linear-gradient-4);}.cls-6{fill:url(#linear-gradient-5);}.cls-7{fill:url(#linear-gradient-6);}.cls-8{opacity:0.42;fill:url(#linear-gradient-7);}.cls-9{opacity:0.31;fill:url(#linear-gradient-8);}.cls-10{fill:#f2e8e4;opacity:0.28;}.cls-11{fill:none;stroke-linecap:round;stroke-linejoin:round;stroke-width:2px;stroke:url(#未命名漸層_13);}.cls-12{fill:#fee17c;}</style><linearGradient id="未命名漸層_40" x1="135.12" y1="28.94" x2="33.07" y2="153.35" gradientUnits="userSpaceOnUse"><stop offset="0" stop-color="#9ce5a3"/><stop offset="1" stop-color="#63d8ea"/></linearGradient><linearGradient id="linear-gradient" x1="140.57" y1="43" x2="30.6" y2="153.73" gradientUnits="userSpaceOnUse"><stop offset="0" stop-color="#39c2b8"/><stop offset="1" stop-color="#4c4c83"/></linearGradient><linearGradient id="linear-gradient-2" x1="151.01" y1="52.03" x2="41.27" y2="162.53" xlink:href="#linear-gradient"/><linearGradient id="linear-gradient-3" x1="116.99" y1="13.38" x2="3.49" y2="127.67" xlink:href="#linear-gradient"/><linearGradient id="linear-gradient-4" x1="263.74" y1="50.19" x2="151.75" y2="162.95" gradientTransform="translate(-142.43 -56.61) rotate(3.89)" gradientUnits="userSpaceOnUse"><stop offset="0" stop-color="#54ccc2"/><stop offset="1" stop-color="#618bb0"/></linearGradient><linearGradient id="linear-gradient-5" x1="292.37" y1="78.62" x2="180.38" y2="191.38" xlink:href="#linear-gradient-4"/><linearGradient id="linear-gradient-6" x1="306.4" y1="92.55" x2="194.41" y2="205.31" xlink:href="#linear-gradient-4"/><linearGradient id="linear-gradient-7" x1="209.66" y1="39.26" x2="26.32" y2="121.89" gradientUnits="userSpaceOnUse"><stop offset="0" stop-color="#39c2b8"/><stop offset="1" stop-color="#415b79"/></linearGradient><linearGradient id="linear-gradient-8" x1="56.83" y1="58.98" x2="150.52" y2="58.98" gradientUnits="userSpaceOnUse"><stop offset="0.5" stop-color="#79d1c2"/><stop offset="1" stop-color="#9cc9c4"/></linearGradient><linearGradient id="未命名漸層_13" y1="86.86" x2="173.72" y2="86.86" gradientUnits="userSpaceOnUse"><stop offset="0" stop-color="#39c2b8"/><stop offset="1" stop-color="#83c251"/></linearGradient></defs><g id="圖層_2" data-name="圖層 2"><g id="圖層_1-2" data-name="圖層 1"><path class="cls-1" d="M153,92.55l0,.32c-.13,1.5-.29,3-.48,4.43a49.93,49.93,0,0,1-1,5.48c-.16.7-.32,1.4-.51,2.07a66.18,66.18,0,0,1-14,26.54s0,0,0,0a56.41,56.41,0,0,1-4.05,4.27A66.34,66.34,0,0,1,31.37,124.86c-.8-1.18-1.56-2.39-2.27-3.63a55.08,55.08,0,0,1-3.37-6.69c-.19-.42-.39-.83-.55-1.28q-1-2.34-1.75-4.78a59.78,59.78,0,0,1-1.88-7c-.29-1.37-.54-2.77-.7-4.18a59.88,59.88,0,0,1-.57-6.05,67.91,67.91,0,0,1,.06-7.68c0-.61.1-1.21.16-1.82a54,54,0,0,1,.76-5.51q.48-2.62,1.18-5.16a63.25,63.25,0,0,1,7-16.8c.77-1.33,1.63-2.67,2.52-4A66.34,66.34,0,0,1,91.15,21.71a65.89,65.89,0,0,1,31.29,10.36c.45.28.93.6,1.37.89a51.83,51.83,0,0,1,5.36,4l.89.77a65.55,65.55,0,0,1,16,20.49,58.05,58.05,0,0,1,2.48,5.58c.73,1.88,1.4,3.82,2,5.76A67.08,67.08,0,0,1,153,92.55Z"/><path class="cls-2" d="M153,92.55l0,.32c-.13,1.5-.29,3-.48,4.43a41,41,0,0,0-25.63-4.72c-32.5,4.76-63.72,20-83.58,19.57a58.78,58.78,0,0,1-19.82-3.67,59.78,59.78,0,0,1-1.88-7c-.29-1.37-.54-2.77-.7-4.18A47,47,0,0,0,41,97.49c16-3.22,30-16.45,52.52-24.79s41.68-10.33,54.4-8.93c.22,0,.41,0,.6.07A66.5,66.5,0,0,1,153,92.55Z"/><path class="cls-3" d="M151.44,102.78c-.16.7-.32,1.4-.51,2.07a65.14,65.14,0,0,1-14,26.54s0,0,0,0a56.41,56.41,0,0,1-4.05,4.27c-9.3,4.43-22.56,7.2-35.53,6.27-26.83-1.91-52.74-9.56-66-17.11-.8-1.18-1.56-2.39-2.27-3.63a55.08,55.08,0,0,1-3.37-6.69c-.19-.42-.39-.83-.55-1.28,9.69,4.34,31.87,11.38,54.72,9.24,32-3,43.5-10.07,60.2-16.66A46.48,46.48,0,0,1,151.44,102.78Z"/><path class="cls-4" d="M130.06,37.77A112.91,112.91,0,0,0,95,50.9c-12.3,7.26-30.56,28.3-53.79,33.75A28.86,28.86,0,0,1,20.5,81.71a54,54,0,0,1,.76-5.51q.48-2.62,1.18-5.16c2.65-.29,8.48-.83,12.24-.26,5,.83,32.47-13.51,50.8-22.69,13.92-7,31-12.74,38.33-15.13a51.83,51.83,0,0,1,5.36,4Z"/><path class="cls-5" d="M129.17,37c-8,.23-27,3-50.47,21C54.39,76.62,38.34,82.52,26.89,79.4a14.46,14.46,0,0,1-5.61-3.19A65.37,65.37,0,0,1,32,50.28a12.15,12.15,0,0,0,11.77,6.6c9.32-.43,28.11-6.23,47.06-15.76a83.3,83.3,0,0,1,31.64-9.07A60.8,60.8,0,0,1,129.17,37Z"/><path class="cls-6" d="M153,92.56l0,.31a62.24,62.24,0,0,0-27.5-3.78C94,91.91,63.6,107.21,44.51,106.82a52.13,52.13,0,0,1-22.95-5.37A60.6,60.6,0,0,1,20.29,91.2a41.82,41.82,0,0,0,22.1.94C57.83,88.89,71.33,75.65,93,67.24S133,56.81,145.26,58.17c.28,0,.55.07.8.09A66.21,66.21,0,0,1,153,92.56Z"/><path class="cls-7" d="M150.94,104.86a65.57,65.57,0,0,1-14,26.55,0,0,0,0,1,0,0c-8.42,5.18-22.76,8.91-39.58,7.74-30.1-2.11-56.91-11.28-68.26-18a58.87,58.87,0,0,1-3.38-6.68c8.06,3.32,29.05,10.64,53.9,9.22,32-1.85,42.48-7.9,58.35-14C143.41,107.75,147.67,106.1,150.94,104.86Z"/><path class="cls-8" d="M144.4,120.88A63.93,63.93,0,0,1,137,131.39s0,0,0,0a56.41,56.41,0,0,1-4.05,4.27A66.34,66.34,0,0,1,31.37,124.86c-.8-1.18-1.56-2.39-2.27-3.63a55.08,55.08,0,0,1-3.37-6.69c-.19-.42-.39-.83-.55-1.28q-1-2.34-1.75-4.78a59.78,59.78,0,0,1-1.88-7c-.29-1.37-.54-2.77-.7-4.18a59.88,59.88,0,0,1-.57-6.05,67.91,67.91,0,0,1,.06-7.68c0-.61.1-1.21.16-1.82a54,54,0,0,1,.76-5.51q.48-2.62,1.18-5.16a63.25,63.25,0,0,1,7-16.8c-.22,2.27-.35,4.53-.35,6.86,0,40,33.34,73.29,73.3,73.29A72.28,72.28,0,0,0,144.4,120.88Z"/><path class="cls-9" d="M114.08,81C87.16,81,64.69,58.56,64.69,31.63a48.3,48.3,0,0,1,.49-6.51c-1,.33-1.92.68-2.87,1.05A42.33,42.33,0,0,0,56.83,47c0,25.3,22.43,45.83,50.09,45.83,18.71,0,35-9.37,43.6-23.24-.36-1.22-.82-2.41-1.24-3.62A49.26,49.26,0,0,1,114.08,81Z"/><path class="cls-10" d="M123.84,56.62c-3.48,7.52-15.67,9.28-27.21,3.93S78.54,44.77,82,37.25,97.69,28,109.24,33.33,127.32,49.1,123.84,56.62Z"/><circle class="cls-11" cx="86.86" cy="86.86" r="85.86"/><path class="cls-12" d="M168.2,44.51a8.16,8.16,0,1,1-2.62-11.23A8.16,8.16,0,0,1,168.2,44.51Z"/></g></g></svg>