<svg xmlns="http://www.w3.org/2000/svg" viewBox="0 0 50.13 71.94"><defs><style>.cls-1{fill:#fff;}</style></defs><g id="圖層_2" data-name="圖層 2"><g id="圖層_1-2" data-name="圖層 1"><path class="cls-1" d="M0,52.34l13.22-1.59c.54,3.75,1.53,6.34,3,7.79a7.67,7.67,0,0,0,5.7,2.16,10.48,10.48,0,0,0,7.81-3.17,11.17,11.17,0,0,0,3.1-8.13,9.31,9.31,0,0,0-2.5-6.84A9,9,0,0,0,23.55,40a13.25,13.25,0,0,0-2.21.2l2.4-11.49a11.33,11.33,0,0,0,1.4.09c3.68,0,6.48-.93,8.41-2.81a10.14,10.14,0,0,0,2.88-7.61,7.34,7.34,0,0,0-2-5.39,6.87,6.87,0,0,0-5.12-2A7.63,7.63,0,0,0,24,13.24q-2.36,2.19-3.75,7.47L7.69,18.21q2.4-7.79,6.68-12A22.11,22.11,0,0,1,30.33,0Q40,0,45.08,5.41a18.33,18.33,0,0,1,5.05,13,16.47,16.47,0,0,1-3.22,9.9,18.55,18.55,0,0,1-8.85,6.49,15.44,15.44,0,0,1,8.7,13.93A21.75,21.75,0,0,1,41.24,63a24.34,24.34,0,0,1-19.47,8.93q-8.94,0-14.73-5.11T0,52.34Z"/></g></g></svg>