<svg xmlns="http://www.w3.org/2000/svg" viewBox="0 0 50.22 70.74"><defs><style>.cls-1{fill:#fff;}</style></defs><g id="圖層_2" data-name="圖層 2"><g id="圖層_1-2" data-name="圖層 1"><path class="cls-1" d="M20,22.25l-13.5-2q1.62-9.8,7.61-15T29.12,0Q39,0,44.6,5.33a17.89,17.89,0,0,1,5.62,13.56,21.76,21.76,0,0,1-1.73,8.38,33.22,33.22,0,0,1-5.67,8.82Q40,39.36,33.55,45.34T25,53.51q-2.09,2.19-4,4.64H45.42l-2.6,12.59H0a30.37,30.37,0,0,1,3.05-9.87A42.08,42.08,0,0,1,9,52.14q3.55-4,13-13,7.11-6.82,9-8.89a27.43,27.43,0,0,0,4.61-6.49,12.14,12.14,0,0,0,1.25-4.95A8.08,8.08,0,0,0,34.77,13a7,7,0,0,0-5.31-2.21,7.82,7.82,0,0,0-5.72,2.48Q21.3,15.77,20,22.25Z"/></g></g></svg>